<svg width="625" height="561" viewBox="0 0 625 561" fill="none" xmlns="http://www.w3.org/2000/svg">
<path fill-rule="evenodd" clip-rule="evenodd" d="M83.4714 447.778C-6.28663 385.509 101.212 302.996 74.9523 204.331C48.6927 105.666 -14.9167 -41.4464 236.029 10.9734C490.289 64.0855 651.55 132.476 613.44 344.316C575.33 556.157 173.229 510.046 83.4714 447.778Z" fill="#FF565E"/>
<path fill-rule="evenodd" clip-rule="evenodd" d="M473.056 533.072C467.428 527.461 464.762 519.615 462.275 512.067C455.758 521.504 441.21 521.808 431.219 516.177C421.229 510.546 414.486 500.713 407.313 491.766C394.469 475.746 339.451 436.185 338.547 424.249C338.067 417.919 356.476 406.395 356.476 406.395L323.396 386.932C323.396 386.932 306.24 400.093 296.376 401.658C268.934 406.01 249.525 403.419 249.502 408.358C249.418 426.228 357.535 516.888 323.058 516.177C271.315 515.11 176.81 414.398 146.197 406.395C133.377 403.044 45.4468 408.358 45.4468 387.074C45.4468 358.488 123.986 338.82 123.986 338.82C123.986 338.82 103.517 269.794 128.292 213.348C133.966 200.421 140.991 185.401 141.675 172.699C141.863 169.215 240.913 75.3938 253.638 70.7067C283.307 59.7783 314.866 54.0028 346.483 53.7157C350.697 53.6774 470.872 70.7067 524.912 159.906C534.678 176.026 579.042 295.741 533.999 370.837C526.893 382.684 527.764 397.388 532.677 410.431C537.59 423.474 543.631 437.982 538.063 450.76C535.023 430.288 529.684 410.159 522.177 390.872C511.71 398.482 517.01 414.856 523.25 426.193C531.114 440.48 538.978 454.767 546.841 469.054C550.112 474.995 553.493 481.543 552.317 488.222C550.971 495.86 544.165 501.144 537.861 505.662C523.469 515.976 509.076 526.29 494.683 536.604C488.224 541.233 478.684 538.683 473.056 533.072Z" fill="white"/>
<path fill-rule="evenodd" clip-rule="evenodd" d="M278.632 216.942C279.735 213.958 283.703 212.725 286.631 213.969C289.558 215.212 291.376 218.322 291.834 221.469C292.293 224.617 291.597 227.816 290.701 230.868C289.884 233.651 288.898 236.385 287.75 239.049C287.643 239.296 287.5 239.573 287.237 239.632C286.957 239.695 286.699 239.477 286.497 239.273C281.522 234.233 278.523 227.292 278.262 220.214C278.222 219.11 278.25 217.978 278.632 216.942ZM287.233 217.67C286.416 216.97 285.363 216.512 284.288 216.544C281.779 216.62 280.028 219.357 280.084 221.866C280.14 224.376 281.477 226.654 282.774 228.803C283.703 230.341 284.632 231.88 285.561 233.419C285.878 233.943 286.501 234.542 286.994 234.178C287.193 234.032 287.27 233.775 287.335 233.537C287.715 232.139 288.096 230.741 288.476 229.343C289.02 227.344 289.568 225.313 289.534 223.242C289.5 221.171 288.805 219.018 287.233 217.67L287.233 217.67Z" fill="#FFB61D"/>
<path fill-rule="evenodd" clip-rule="evenodd" d="M285.592 225.702C284.98 225.875 284.313 225.842 283.722 225.611C282.574 225.164 281.781 223.934 281.848 222.704C281.914 221.474 282.835 220.337 284.024 220.016C285.826 219.53 287.856 221.19 287.736 223.053C287.658 224.262 286.758 225.374 285.592 225.702Z" fill="#FFB61D"/>
<path fill-rule="evenodd" clip-rule="evenodd" d="M318.438 518.19C320.496 518.461 319.736 521.655 318.401 523.245C305.647 538.428 288.996 550.309 270.49 557.43C266.34 559.026 262.046 560.399 257.61 560.704C249.384 561.271 241.188 558.058 234.683 552.991C228.177 547.923 223.22 541.112 219.18 533.923C208.132 514.264 203.501 491.065 206.153 468.671C206.402 466.564 207.84 463.768 209.782 464.624C209.219 472.111 209.132 479.634 209.521 487.132C209.903 494.497 210.753 501.882 212.868 508.947C214.826 515.488 217.838 521.659 220.979 527.722C224.208 533.953 227.629 540.167 232.292 545.413C236.955 550.659 243.007 554.922 249.892 556.282C258.524 557.987 267.383 555.013 275.341 551.261C291.845 543.48 306.651 532.118 318.438 518.19Z" fill="#00160A"/>
<path fill-rule="evenodd" clip-rule="evenodd" d="M378.15 432.857C393.139 418.11 408.128 403.364 423.116 388.617C423.956 387.791 425.198 386.91 426.19 387.543C427.514 388.388 426.455 390.42 425.339 391.524C409.207 407.479 393.074 423.434 376.941 439.389C375.779 438.799 375.441 437.209 375.85 435.972C376.26 434.734 377.221 433.771 378.15 432.857H378.15Z" fill="#00160A"/>
<path fill-rule="evenodd" clip-rule="evenodd" d="M263.403 348.045C262.49 348.203 261.576 348.361 260.662 348.519C258.888 345.857 257.073 343.095 256.517 339.945C255.96 336.796 257.002 333.13 259.798 331.576C262.961 329.818 263.915 325.494 262.907 322.018C261.899 318.542 259.403 315.725 256.957 313.057C254.474 310.348 250.491 307.471 247.542 309.666C245.62 311.097 242.743 310.288 241.023 308.62C239.303 306.952 238.393 304.647 237.28 302.525C235.175 298.51 232.106 294.888 228.091 292.783C224.076 290.678 219.051 290.261 215.01 292.315C211.001 294.353 208.472 298.408 205.055 301.331C201.638 304.255 195.995 305.808 192.916 302.53C192.133 301.696 191.608 300.46 192.053 299.407C192.498 298.353 194.225 297.991 194.777 298.993C196.182 301.546 200.066 301.509 202.494 299.898C204.923 298.288 206.443 295.655 208.435 293.528C212.332 289.369 218.256 287.203 223.917 287.868C229.578 288.534 234.838 292.013 237.665 296.963C239.027 299.348 239.867 302.06 241.645 304.153C243.424 306.246 246.656 307.528 248.937 305.999C251.514 304.271 254.876 306.418 257.137 308.542C260.198 311.416 263.18 314.522 264.903 318.351C266.627 322.179 266.9 326.89 264.648 330.433C262.773 333.382 259.185 335.771 259.496 339.252C259.786 342.498 263.521 344.788 263.403 348.045Z" fill="#00160A"/>
<path fill-rule="evenodd" clip-rule="evenodd" d="M302.97 201.878C308.458 204.447 313.34 208.556 316.161 213.918C318.982 219.281 319.556 225.94 317.027 231.446C311.795 242.836 295.158 247.27 293.323 259.67C292.856 262.828 293.492 266.111 292.712 269.207C292.172 271.346 290.991 273.256 290.046 275.249C288.018 279.526 287.061 284.305 287.284 289.033C285.169 290.178 282.683 287.74 282.413 285.351C282.143 282.962 283.099 280.589 283.048 278.185C282.952 273.666 279.456 270.069 276.474 266.673C272.002 261.578 268.116 255.579 267.389 248.839C267.155 246.667 267.254 244.451 266.766 242.322C266.24 240.033 265.063 237.956 264.024 235.85C261.219 230.168 259.321 223.611 261.047 217.515C262.774 211.419 269.211 206.375 275.321 208.053C277.056 208.53 278.754 209.503 280.535 209.238C283.661 208.771 284.922 205.042 287.102 202.752C291.008 198.647 297.838 199.475 302.97 201.878M276.399 261.12C279.864 265.678 283.328 270.236 286.793 274.794C290.767 270.61 289.123 263.841 290.331 258.198C291.977 250.511 298.853 245.293 304.81 240.164C310.768 235.035 316.683 228.018 315.345 220.272C314.27 214.047 308.838 209.624 303.63 206.05C300.694 204.035 297.305 202.008 293.803 202.656C290.262 203.31 287.836 206.45 285.285 208.991C282.734 211.532 278.887 213.74 275.694 212.075C271.201 209.731 265.481 213.729 264.213 218.635C262.945 223.542 264.768 228.675 266.769 233.33C268.771 237.986 271.028 242.811 270.648 247.864C270.278 252.781 273.415 257.194 276.399 261.12Z" fill="#00160A"/>
<path fill-rule="evenodd" clip-rule="evenodd" d="M0.0306361 156.418C-0.194303 155.809 0.874202 155.637 1.44708 155.943C1.42242 156.577 0.448098 156.898 0.0521229 156.402L0.0306361 156.418Z" fill="#00160A"/>
<path fill-rule="evenodd" clip-rule="evenodd" d="M415.594 406.054C416.77 406.218 417.395 407.666 417.128 408.823C416.86 409.98 415.989 410.887 415.154 411.731C408.402 418.556 401.649 425.381 394.896 432.207C394.398 432.711 393.812 433.252 393.103 433.229C392.15 433.199 391.527 432.097 391.643 431.151C391.76 430.205 392.382 429.409 392.985 428.67C399.194 421.073 405.932 413.909 413.135 407.245C413.827 406.605 414.66 405.924 415.594 406.054V406.054Z" fill="#00160A"/>
<path fill-rule="evenodd" clip-rule="evenodd" d="M217.045 307.347C220.765 307.684 223.626 311.18 224.265 314.861C224.903 318.541 223.756 322.304 222.2 325.7C221.342 327.571 220.357 329.384 219.252 331.121C218.458 332.37 217.446 333.684 215.985 333.926C213.546 334.331 211.833 331.646 210.892 329.36C209.567 326.142 208.352 322.879 207.248 319.579C206.706 317.958 206.185 316.253 206.462 314.567C206.885 311.99 209.076 310.061 211.371 308.814C213.113 307.868 215.071 307.168 217.045 307.347M213.55 326.3C213.835 326.745 214.139 327.201 214.587 327.483C214.953 327.715 215.403 327.812 215.833 327.752C216.939 327.599 217.65 326.533 218.215 325.569C219.694 323.048 221.213 320.401 221.379 317.483C221.545 314.564 219.887 311.317 217.026 310.715C213.679 310.011 210.56 313.365 210.276 316.774C209.992 320.183 211.703 323.42 213.55 326.3Z" fill="#FFB61D"/>
<path fill-rule="evenodd" clip-rule="evenodd" d="M216.885 314.264C217.803 314.561 218.595 315.231 219.039 316.088C219.434 316.851 219.553 317.753 219.369 318.592C218.944 320.53 216.754 321.882 214.831 321.395C212.909 320.907 211.627 318.675 212.176 316.769C212.725 314.863 214.997 313.654 216.885 314.264ZM216.459 318.286C217.159 317.917 216.534 316.575 215.801 316.875C215.234 316.95 214.858 317.664 215.117 318.174C215.377 318.685 216.175 318.802 216.571 318.388L216.459 318.286Z" fill="#FFB61D"/>
<path fill-rule="evenodd" clip-rule="evenodd" d="M413.788 350.936C411.714 348.696 409.849 346.262 408.227 343.676C407.709 342.849 408.783 341.773 409.751 341.902C410.718 342.031 411.429 342.842 412.046 343.598C414.195 346.234 416.344 348.87 418.493 351.505C418.246 352.446 417.059 352.872 416.119 352.622C415.179 352.372 414.449 351.649 413.788 350.936L413.788 350.936Z" fill="#00160A"/>
<path fill-rule="evenodd" clip-rule="evenodd" d="M484.596 473.064C484.619 473.372 484.506 473.671 484.389 473.957C483.208 476.83 481.452 479.465 479.254 481.66C475.756 485.152 471.016 487.739 469.143 492.313C468.7 493.396 467.045 493.553 466.185 492.759C465.325 491.965 465.207 490.602 465.588 489.495C465.969 488.389 466.756 487.476 467.525 486.594C470.032 483.72 472.539 480.845 475.046 477.971C476.967 475.768 478.972 473.501 481.634 472.293C482.729 471.796 484.503 471.865 484.596 473.064V473.064Z" fill="#00160A"/>
<path fill-rule="evenodd" clip-rule="evenodd" d="M416.343 338.967C418.817 341.874 421.291 344.781 423.766 347.689C424.181 348.177 424.621 348.732 424.593 349.373C424.549 350.369 423.326 350.963 422.356 350.731C421.387 350.498 420.654 349.724 420.003 348.969C417.907 346.537 416.029 343.917 414.4 341.15C413.765 340.071 413.518 338.185 414.759 338.024C415.396 337.941 415.926 338.478 416.343 338.967L416.343 338.967Z" fill="#00160A"/>
<path fill-rule="evenodd" clip-rule="evenodd" d="M387.845 355.172C387.469 354.644 387.08 353.955 387.398 353.389C387.923 352.456 389.348 353.18 390.059 353.981C392.573 356.817 394.713 359.983 396.406 363.374C394.793 364.19 393.079 362.529 392.031 361.056C390.636 359.095 389.24 357.134 387.845 355.172Z" fill="#00160A"/>
<path fill-rule="evenodd" clip-rule="evenodd" d="M390.074 363.52C391.081 364.567 392.099 366.288 391.051 367.294C389.984 368.316 388.278 367.163 387.335 366.025C385.055 363.272 383.073 360.273 381.433 357.097C382.485 356.194 384.044 357.245 385.005 358.245C386.695 360.003 388.384 361.762 390.074 363.52Z" fill="#00160A"/>
<path fill-rule="evenodd" clip-rule="evenodd" d="M392.817 353.213C392.362 352.543 391.934 351.623 392.428 350.981C393.133 350.064 394.566 350.906 395.355 351.752C397.644 354.205 399.934 356.659 402.223 359.113C402.121 360 401.082 360.531 400.199 360.4C399.315 360.269 398.58 359.673 397.918 359.074C395.994 357.332 394.277 355.36 392.817 353.213L392.817 353.213Z" fill="#00160A"/>
<path fill-rule="evenodd" clip-rule="evenodd" d="M407.25 347.771C408.675 349.59 410.101 351.409 411.527 353.228C412.092 353.949 412.689 354.875 412.32 355.714C411.965 356.523 410.842 356.736 410.03 356.388C409.217 356.041 408.649 355.305 408.119 354.599C406.631 352.612 405.157 350.616 403.697 348.609C403.374 348.166 403.036 347.668 403.085 347.122C403.167 346.213 404.331 345.741 405.201 346.019C406.07 346.296 406.686 347.053 407.25 347.771H407.25Z" fill="#00160A"/>
<path fill-rule="evenodd" clip-rule="evenodd" d="M406.176 356.16C406.471 356.482 406.787 356.857 406.755 357.293C406.713 357.874 406.031 358.235 405.455 358.148C404.878 358.062 404.402 357.668 403.968 357.278C401.123 354.719 398.725 351.665 396.915 348.294C397.271 347.367 398.671 347.996 399.343 348.727C401.621 351.205 403.898 353.682 406.176 356.16Z" fill="#00160A"/>
<path fill-rule="evenodd" clip-rule="evenodd" d="M433.808 339.756C434.03 340.012 434.264 340.304 434.25 340.642C434.23 341.152 433.623 341.472 433.12 341.386C432.616 341.299 432.209 340.94 431.834 340.593C429.155 338.118 426.593 335.517 424.158 332.801C425.019 331.644 426.837 332.572 427.882 333.565C429.954 335.534 431.932 337.6 433.808 339.756V339.756Z" fill="#00160A"/>
<path fill-rule="evenodd" clip-rule="evenodd" d="M425.32 342.23C423.822 340.178 422.324 338.126 420.826 336.074C420.551 335.698 420.262 335.241 420.409 334.799C420.7 333.929 422.02 334.317 422.73 334.896C424.983 336.734 426.895 338.989 428.341 341.511C428.622 342.001 428.892 342.58 428.693 343.108C428.441 343.78 427.52 343.978 426.859 343.696C426.199 343.415 425.743 342.809 425.32 342.23L425.32 342.23Z" fill="#00160A"/>
<path fill-rule="evenodd" clip-rule="evenodd" d="M437.275 334.69C435.795 333.099 434.315 331.507 432.835 329.916C432.308 329.349 432.946 328.343 433.716 328.26C434.486 328.178 435.19 328.664 435.8 329.141C436.923 330.018 438.005 330.946 439.044 331.921C439.618 332.461 440.201 333.051 440.417 333.808C440.634 334.566 440.337 335.528 439.592 335.786C438.735 336.081 437.892 335.354 437.275 334.69L437.275 334.69Z" fill="#00160A"/>
<path fill-rule="evenodd" clip-rule="evenodd" d="M434.403 337.841C432.355 335.74 430.393 333.555 428.524 331.294C428.199 330.9 427.855 330.415 427.994 329.923C428.15 329.368 428.877 329.151 429.423 329.336C429.969 329.522 430.369 329.982 430.741 330.422C432.453 332.448 434.165 334.474 435.877 336.5C436.34 337.048 436.796 337.91 436.27 338.398C435.74 338.89 434.908 338.359 434.403 337.841V337.841Z" fill="#00160A"/>
<path fill-rule="evenodd" clip-rule="evenodd" d="M531.839 467.689C534.151 466.975 540.004 465.387 542.316 464.674C543.352 464.355 544.892 464.313 545.086 465.38C545.246 466.258 544.237 466.855 543.391 467.139C541.056 467.924 535.1 469.344 532.654 469.639C531.784 469.744 530.519 469.42 530.696 468.561C530.797 468.067 531.357 467.837 531.839 467.689Z" fill="#00160A"/>
<path fill-rule="evenodd" clip-rule="evenodd" d="M273.523 371.006C277.183 371.059 281.51 371.911 282.97 375.268C284.341 378.421 282.185 382.211 279.161 383.847C276.137 385.484 272.535 385.524 269.097 385.52C222.187 385.46 175.279 384.327 128.42 382.124C125.5 381.987 125.224 377.773 125.891 374.927C126.289 373.229 126.737 371.438 127.962 370.196C129.725 368.409 132.521 368.287 135.031 368.279C168.717 368.171 202.464 368.065 236.008 371.164C241.321 371.655 246.64 372.227 251.975 372.175C259.17 372.105 266.328 370.901 273.523 371.006M278.776 379.521C279.562 377.987 278.405 376.036 276.832 375.332C275.259 374.627 273.45 374.81 271.735 374.979C249.745 377.142 227.605 374.646 205.547 373.356C189.514 372.419 173.451 372.121 157.394 371.823C150.7 371.698 144.006 371.574 137.312 371.45C135.177 371.41 132.837 371.438 131.197 372.806C129.556 374.173 129.501 377.397 131.537 378.041C131.905 378.158 132.296 378.178 132.682 378.196C179.81 380.488 226.999 381.516 274.182 381.28C275.912 381.271 277.987 381.06 278.776 379.521V379.521Z" fill="#00160A"/>
<path fill-rule="evenodd" clip-rule="evenodd" d="M243.575 408.923C247.758 418.08 256.77 424.859 266.728 426.339C271.413 427.036 274.612 431.297 277.28 435.211C280.053 439.278 282.087 446.173 277.503 447.969C295.294 467.588 313.085 487.206 330.876 506.825C332.942 509.104 334.95 512.908 332.554 514.837C331.664 515.554 330.444 515.667 329.302 515.705C314.645 516.196 300.814 509.335 288.129 501.975C269.862 491.375 252.416 479.362 235.997 466.079C224.002 456.374 206.769 453.598 192.333 459.044C184.844 461.87 175.455 456.11 174.581 448.153C173.707 440.196 181.621 432.535 189.545 433.668C177.632 415.991 156.325 405.067 135.018 405.711C109.302 406.488 83.4822 403.789 58.4818 397.712C56.2859 397.179 53.928 396.512 52.5507 394.721C49.8045 391.148 52.6855 386.07 55.7041 382.724C77.9446 358.076 112.166 344.779 145.214 347.944C146.622 348.079 147.388 346.369 147.718 344.993C156.119 309.983 164.52 274.972 172.92 239.961C173.933 235.739 180.359 235.156 183.543 238.107C186.727 241.059 187.427 245.764 187.794 250.09C190.53 282.339 185.752 317.057 201.783 345.172C202.53 346.482 203.373 347.823 204.685 348.566C205.977 349.299 207.533 349.343 209.019 349.37C238.701 349.896 268.383 350.422 298.065 350.947C301.763 351.013 306.304 350.573 307.798 347.189C311.626 338.519 315.455 329.849 319.283 321.178C320.501 318.42 322.181 315.29 325.162 314.836C329.431 314.185 332.133 319.548 331.994 323.864C331.856 328.181 330.404 332.767 332.306 336.645C339.279 329.233 346.371 321.726 355.09 316.479C363.81 311.232 374.52 308.444 384.298 311.264C375.654 325.008 367.009 338.752 358.365 352.497C365.585 357.274 366.154 369.357 359.415 374.792C356.538 377.113 358.821 381.692 361.204 384.518C368.672 393.369 376.14 402.22 383.607 411.072C377.233 414.027 369.81 410.985 363.543 407.81C352.342 402.135 341.408 395.933 330.79 389.231C325.637 385.979 319.958 392.076 315.281 395.982C307.857 402.182 297.607 403.417 287.984 404.398C273.181 405.906 258.378 407.415 243.575 408.923ZM269.396 389.683C278.49 390.181 287.757 390.811 296.581 388.556C305.617 386.248 313.84 380.874 319.581 373.525C320.975 371.741 323.417 371.236 325.649 370.852C333.354 369.526 341.468 368.23 348.829 370.866C352.149 372.055 356.201 370.694 358.13 367.741C360.059 364.787 359.677 360.53 357.254 357.967C354.631 357.895 354.153 361.617 352.762 363.842C350.934 366.765 346.948 367.241 343.505 367.414C330.874 368.049 318.244 368.684 305.613 369.319C302.547 369.473 298.323 368.581 298.415 365.512C298.455 364.162 299.442 363.046 300.408 362.103C303.8 358.792 307.67 355.974 311.862 353.763C260.577 354.152 209.285 353.575 158.022 352.034C132.814 351.276 105.933 350.702 84.4538 363.917C82.4486 365.151 80.8806 368.789 83.2074 369.148C90.0592 370.205 96.9111 371.262 103.763 372.319C104.579 372.445 105.452 372.599 106.043 373.176C107.813 374.905 105.333 377.686 103.052 378.647C93.6395 382.609 82.4236 382.005 73.492 377.053C71.4678 375.931 69.0664 374.566 67.0041 375.617C64.5126 376.886 64.855 380.891 66.9683 382.722C69.0817 384.553 72.0915 384.81 74.8822 384.983C99.952 386.53 125.022 388.077 150.091 389.624C157.138 390.058 164.207 390.493 171.253 390.054C203.923 388.018 236.712 387.894 269.396 389.683ZM305.991 486.87C297.217 474.797 287.222 463.613 276.209 453.541C272.603 450.244 269.427 446.511 266.261 442.789C252.418 426.515 238.576 410.241 224.733 393.967C223.351 392.343 220.962 392.129 218.83 392.062C200.649 391.485 182.408 392.837 164.51 396.085C163.187 396.325 161.759 396.635 160.885 397.658C158.859 400.028 161.391 403.493 163.766 405.515C187.53 425.749 212.168 444.957 237.587 463.069C242.265 466.402 247.013 469.723 252.296 471.978C262.263 476.235 272.23 480.491 282.196 484.747C289.822 488.004 298.912 491.188 305.991 486.87M186.971 307.195C186.605 302.441 186.603 297.604 185.296 293.018C182.942 284.758 176.666 278.271 170.419 272.376C169.934 271.918 169.295 271.426 168.669 271.655C168.099 271.864 167.893 272.547 167.763 273.139C163.107 294.342 158.451 315.545 153.795 336.748C152.917 340.749 152.033 344.807 152.223 348.9C168.546 349.106 184.869 349.312 201.193 349.517C193.06 336.871 188.125 322.186 186.971 307.195ZM378.763 314.236C368.624 313.37 358.181 317.097 350.881 324.187C337.51 337.173 323.231 349.225 308.184 360.225C306.123 361.731 303.916 363.4 303.217 365.854C315.824 365.286 328.431 364.717 341.038 364.148C344.362 363.998 348.276 363.5 349.866 360.576C358.565 344.573 368.221 329.09 378.763 314.236ZM55.1774 389.306C54.8338 390.041 54.5295 390.859 54.7202 391.647C55.0575 393.041 56.6855 393.621 58.0791 393.959C86.2663 400.799 115.509 401.68 144.502 402.528C147.387 402.613 150.38 402.677 153.029 401.532C155.678 400.386 157.88 397.662 157.449 394.808C138.603 392.196 119.581 390.858 100.555 390.806C89.1573 390.774 77.435 391.152 66.7499 387.185C64.1722 386.228 61.255 384.309 61.5833 381.579C58.8382 383.555 56.6101 386.243 55.1774 389.306ZM323.961 384.216C322.949 382.022 320.1 381.21 317.737 381.717C315.375 382.223 313.369 383.72 311.388 385.103C306.815 388.295 301.87 391.112 296.443 392.399C291.712 393.52 286.789 393.44 281.928 393.354C264.18 393.04 246.432 392.725 228.684 392.411C232.636 398.308 238.053 404.933 245.11 404.158C258.915 402.642 272.899 403.004 286.639 400.977C300.378 398.949 314.299 394.192 323.961 384.216ZM365.023 399.398C365.669 399.311 366.422 399.095 366.625 398.476C366.795 397.956 366.484 397.412 366.181 396.957C361.069 389.265 354.773 382.445 348.506 375.662C347.55 374.627 346.553 373.562 345.254 373.016C343.91 372.451 342.395 372.505 340.941 372.613C334.997 373.059 329.11 374.271 323.472 376.211C323.012 376.369 322.477 376.623 322.425 377.107C322.384 377.484 322.666 377.811 322.931 378.081C328.854 384.102 336.263 388.404 343.575 392.631C350.192 396.457 357.449 400.419 365.023 399.398ZM196.484 438.076C195.932 437.648 195.344 437.206 194.651 437.116C194.089 437.043 193.527 437.213 192.986 437.381C191.733 437.77 190.48 438.159 189.228 438.547C188 438.928 186.467 440.057 187.175 441.13C189.384 444.475 190.281 448.662 189.635 452.618C189.426 453.901 191.272 454.361 192.569 454.269C199.275 453.796 205.98 453.322 212.686 452.849C213.385 452.799 214.329 452.445 214.166 451.763C208.272 447.201 202.378 442.638 196.484 438.076ZM311.382 347.39C310.911 348.622 312.167 349.96 313.479 350.096C314.791 350.232 316.039 349.569 317.192 348.928C321.347 346.615 325.828 343.929 327.397 339.44C327.909 337.978 328.067 336.419 328.221 334.877C328.485 332.232 328.75 329.586 329.014 326.94C329.073 326.353 329.121 325.717 328.81 325.215C328.499 324.713 327.674 324.51 327.329 324.989C325.935 326.925 323.889 328.383 321.603 329.067C320.614 329.363 319.552 329.533 318.719 330.143C317.727 330.868 317.24 332.08 316.8 333.228C314.994 337.949 313.188 342.669 311.382 347.39ZM270.065 432.171C268.255 428.795 263.267 427.66 260.174 429.922C264.161 433.037 266.41 437.844 269.794 441.606C270.958 442.9 272.472 444.152 274.21 444.038C275.948 443.924 277.384 441.602 276.153 440.37C273.737 437.954 271.679 435.182 270.065 432.171ZM181.421 441.38C178.729 444.008 179.646 448.457 180.757 452.051C181.131 453.263 182.325 454.77 183.316 453.978C183.652 453.709 183.772 453.259 183.873 452.84C184.37 450.775 184.87 448.662 184.648 446.55C184.426 444.438 183.338 442.292 181.421 441.38Z" fill="#00160A"/>
<path fill-rule="evenodd" clip-rule="evenodd" d="M479.056 538.072C473.428 532.461 470.762 524.615 468.275 517.067C461.758 526.504 453.305 533.203 443.315 527.572C433.324 521.941 420.486 505.713 413.313 496.766C400.469 480.746 385.211 466.665 368.214 455.145C377.291 465.104 382.72 478.319 383.264 491.783C390.15 491.712 397.036 491.64 403.922 491.568C380.771 499.457 355.97 502.464 331.605 500.334C344.844 489.201 355.197 474.664 361.39 458.513C360.008 454.142 353.441 455.155 349.607 457.665C345.772 460.175 340.81 463.362 337.116 460.648C332.569 457.308 332.882 446.845 327.482 448.481C313.463 452.729 296.844 444.29 292.001 430.465C288.694 432.532 285.388 434.599 282.081 436.666C280.489 431.544 287.861 427.587 292.83 429.607C297.798 431.627 300.71 436.652 304.155 440.763C307.6 444.873 313.129 448.502 318.046 446.36C327.209 442.369 339.261 449.577 340.079 459.538C347.185 453.836 356.931 451.575 365.821 453.567C360.15 445.352 353.821 437.591 346.914 430.383C352.165 423.386 358.657 417.324 365.997 412.565C362.395 419.375 357.401 425.446 351.414 430.295C382.122 460.401 412.83 490.508 443.539 520.614C445.472 522.509 447.688 524.529 450.395 524.566C453.361 524.607 455.753 522.271 457.775 520.101C472.187 504.634 486.6 489.168 501.013 473.702C504.767 469.672 508.718 465.23 509.282 459.751C509.989 452.87 505.185 446.768 500.599 441.59C482.144 420.756 462.509 400.968 441.819 382.352C432.744 374.187 420.78 365.697 409.364 370.02C395.589 375.237 392.311 395.968 378.161 400.063C382.392 394.248 386.623 388.433 390.853 382.618C382.465 376.55 371.974 363.008 371.428 352.67C378.161 346.536 386.463 341.891 393.348 338.33C386.463 322.118 387.28 318.747 396.488 316.533C405.697 314.319 413.674 312.125 422.136 309.295C445.598 301.448 456.796 264.244 437.103 248.791C426.269 240.29 345.071 156.841 310.208 126.074C312.848 137.85 297.335 148.953 287.04 142.655C289.015 149.443 284.267 157.658 277.255 158.553C270.242 159.449 263.401 151.673 265.856 145.043C267.969 139.337 274.729 136.976 278.654 132.326C282.579 127.677 279.155 117.458 273.82 120.385C271.003 131.725 254.419 136.556 245.952 128.504C242.971 125.669 239.066 124.972 235.074 125.642C230.183 126.462 221.722 128.361 218.104 131.868C212.436 137.363 211.157 145.389 204.408 149.118C203.333 149.713 202.205 150.223 201.014 150.629C192.351 153.581 180.222 145.008 184.72 137.037C160.07 159.765 143.149 190.728 137.332 223.748C150.197 227.416 152.64 244.312 152.604 257.69C138.09 261.373 151.743 289.077 139.191 297.24C124.881 306.547 128.86 328.188 134.526 344.289C120.021 313.073 118.276 276.149 129.772 243.704C128.636 264.288 127.5 284.872 126.363 305.456C136.096 304.032 140.027 292.171 140.832 282.368C141.637 272.564 142.249 261.029 150.491 255.661C147.414 247.818 146.152 239.269 146.83 230.871C143.248 229.714 139.666 228.558 136.084 227.402C133.932 242.557 117.099 250.012 103.218 256.465C88.232 263.432 74.1336 272.304 61.3696 282.8C47.6787 294.059 34.641 309.538 36.1573 327.198C37.6152 344.179 52.2481 357.164 67.6102 364.545C51.1595 364.508 37.0401 349.874 34.3883 333.638C31.7365 317.403 38.8106 300.701 49.8705 288.523C60.9304 276.345 75.596 268.067 90.4677 261.034C109.943 251.824 133.565 239.879 134.292 218.348C134.897 200.4 154.583 182.81 145.152 167.527C131.906 146.06 124.518 121.018 123.99 95.7993C123.729 83.3576 126 69.2739 136.199 62.1434C141.277 58.5934 147.594 57.3539 153.749 56.647C176.575 54.0258 200.091 57.6833 221.043 67.1136C233.409 72.6794 246.913 80.3938 259.638 75.7067C289.307 64.7783 320.866 59.0028 352.483 58.7157C356.697 58.6774 360.196 55.5826 363.13 52.5572C374.678 40.652 384.314 26.8761 396.881 16.052C409.447 5.22801 426.164 -2.56444 442.408 0.785439C459.413 4.29235 472.108 19.4358 477.663 35.8862C483.218 52.3365 482.903 70.1086 482.528 87.4675C481.856 118.555 520.849 135.485 530.912 164.906C536.845 182.252 556.42 190.291 574.025 195.409C591.629 200.526 611.349 206.196 620.423 222.127C628.874 236.965 624.695 256.403 614.718 270.261C604.742 284.12 589.97 293.615 575.559 302.776C552.228 317.609 558.777 355.545 539.999 375.837C530.533 386.066 533.764 402.388 538.677 415.431C543.59 428.474 549.631 442.982 544.063 455.76C541.023 435.288 535.684 415.159 528.177 395.872C517.71 403.482 523.01 419.856 529.25 431.193C537.114 445.48 544.978 459.767 552.841 474.054C556.112 479.995 559.493 486.543 558.317 493.222C556.971 500.86 550.165 506.144 543.861 510.662C529.469 520.976 515.076 531.29 500.683 541.604C494.224 546.233 484.684 543.683 479.056 538.072ZM509.773 406.392C508.51 404.971 506.2 405.665 504.475 406.461C502.746 407.26 501.017 408.058 499.289 408.857C498.91 409.032 498.491 409.211 498.089 409.101C497.33 408.895 497.203 407.771 497.679 407.146C498.156 406.521 498.963 406.27 499.711 406.027C501.304 405.51 502.858 404.875 504.358 404.128C505.215 403.702 506.135 403.138 506.368 402.209C506.601 401.281 505.535 400.152 504.747 400.696C502.426 402.295 499.816 403.472 497.081 404.152C496.261 404.355 494.982 404.099 495.175 403.276C495.249 402.961 495.542 402.754 495.816 402.581C498.256 401.047 500.919 399.868 503.695 399.092C504.695 398.813 504.446 397.131 503.494 396.718C502.541 396.305 501.453 396.723 500.501 397.138C498.2 398.141 495.899 399.144 493.598 400.147C493.104 400.363 492.55 400.645 492.418 401.168C492.3 401.636 492.571 402.106 492.831 402.513C494.504 405.132 496.176 407.75 497.849 410.369C498.104 410.768 498.393 411.195 498.843 411.341C499.332 411.5 499.855 411.28 500.321 411.062C503.506 409.576 506.657 408.018 509.773 406.392ZM352.558 121.53C347.142 121.623 343.074 115.465 344.082 110.143C345.09 104.82 349.875 100.837 355.057 99.2593C362.099 97.1152 370.507 98.3697 376.12 93.6074C378.641 91.468 380.18 88.3951 382.477 86.0157C387.482 80.8295 396.188 79.7322 402.324 83.5145C403.701 79.8998 399.625 76.4047 395.811 75.761C391.996 75.1173 387.883 75.8861 384.369 74.2683C378.196 71.4263 370.928 75.0772 365.987 79.7434C361.047 84.4096 356.996 90.2876 350.907 93.3049C344.818 96.3223 335.605 94.6394 333.931 88.0533C333.409 86.001 333.345 83.2817 331.343 82.5898C328.186 81.4985 326.544 77.8129 326.732 74.4781C326.919 71.1433 328.518 68.0735 330.082 65.1225C323.896 64.8106 317.684 65.0026 311.529 65.6959C310.052 65.8622 308.175 66.4855 308.178 67.9714C308.185 71.0421 305.334 73.2449 302.773 74.9382C297.351 78.522 291.929 82.1059 286.507 85.6898C286.677 89.2694 291.955 90.1256 295.046 88.3128C298.137 86.5 300.315 83.2592 303.648 81.9417C305.428 81.2379 307.382 81.1516 309.295 81.0738C312.561 80.9409 315.828 80.808 319.094 80.6751C323.28 80.5048 328.927 81.5676 329.149 85.7509C329.33 89.1819 325.521 91.1865 323.082 93.6065C317.531 99.1151 317.551 109.777 310.266 112.621C307.677 113.631 306.981 117.217 308.116 119.754C309.252 122.29 311.62 124.014 313.861 125.658C352.969 154.353 421.097 228.333 422.588 228.53C424.078 228.728 425.827 227.658 425.744 226.157C425.528 222.275 425.319 218.322 426.269 214.552C427.218 210.782 429.523 207.153 433.077 205.576C436.353 204.124 441.119 203.795 441.828 200.282C443.414 192.425 451.28 186.349 459.284 186.798C463.216 187.019 467.555 188.52 470.828 186.328C468.188 183.825 464.288 183.308 461.016 181.719C457.744 180.13 454.866 176.107 456.821 173.039C459.708 168.509 455.502 162.585 456.367 157.282C456.734 155.032 458.005 153.04 459.349 151.198C463.904 144.955 469.658 139.589 476.204 135.48C477.726 134.525 478.107 132.513 478.347 130.732C478.926 126.433 479.504 122.133 480.083 117.833C480.487 114.833 480.76 111.391 478.702 109.172C472.003 101.951 460.85 101.714 451.005 102.036C441.16 102.357 430.036 102.23 423.216 95.123C421.099 92.9171 417.234 93.6671 414.938 95.6859C412.642 97.7046 411.373 100.612 409.664 103.147C404.325 111.066 393.989 115.263 384.64 113.308C379.633 112.261 374.585 109.622 369.669 111.035C363.115 112.919 359.376 121.414 352.558 121.53ZM540.707 316.445C541.008 317.538 541.448 318.786 542.52 319.154C543.38 319.449 544.307 319.046 545.126 318.651C547.846 317.341 550.565 316.032 553.285 314.722C554.681 314.049 556.249 313.157 556.497 311.628C561.533 280.613 560.074 248.56 552.243 218.131C550.391 210.935 548.182 203.814 545.238 196.992C541.478 188.277 536.551 180.119 531.493 172.087C524.214 160.526 516.628 149.157 508.746 137.997C507.284 140.278 506.848 143.04 506.105 145.645C505.361 148.25 504.114 150.95 501.721 152.22C499.329 153.49 495.653 152.412 495.229 149.737C494.312 143.953 488.105 139.579 482.349 140.662C481.112 140.895 480.702 142.434 480.548 143.684C479.147 155.045 477.746 166.407 476.346 177.768C476.244 178.594 476.201 179.577 476.851 180.097C477.392 180.53 478.163 180.434 478.856 180.423C482.773 180.365 486.189 184.456 485.433 188.3C484.676 192.144 479.964 194.635 476.361 193.095C474.806 192.431 473.588 194.539 473.199 196.184C470.846 206.116 468.493 216.048 466.14 225.98C465.446 228.91 467.976 231.675 470.697 232.962C473.418 234.249 476.528 234.715 479.025 236.397C485.279 240.609 485.01 250.189 490.067 255.782C494.187 260.338 501.811 261.167 506.814 257.602C511.29 254.413 513.235 248.588 513.238 243.092C513.239 239.344 515.567 235.695 518.965 234.114C522.363 232.533 526.654 233.102 529.522 235.514C532.316 237.864 533.582 241.515 534.726 244.981C535.231 246.51 535.736 248.178 535.194 249.694C534.308 252.173 531.261 252.907 528.77 253.758C524.195 255.322 520.185 258.488 517.602 262.575C516.342 264.57 515.487 267.368 517.048 269.138C520.86 273.464 524.673 277.79 528.485 282.116C530.479 284.378 532.533 286.749 533.333 289.656C535.791 298.586 538.249 307.515 540.707 316.445ZM152.333 174.236C158.308 163.085 164.341 151.846 172.458 142.142C179.566 133.644 188.128 126.498 196.677 119.451C207.941 110.167 219.273 100.966 230.672 91.8491C235.417 88.0543 240.236 84.2354 245.768 81.7223C229.183 74.4141 212.492 67.0694 194.885 62.7764C177.277 58.4835 158.522 57.3644 141.148 62.5228C139.474 63.0198 137.793 63.5852 136.348 64.5655C133.908 66.2208 132.367 68.9024 131.211 71.6149C126.667 82.2754 126.922 94.3542 128.4 105.848C131.503 129.977 139.713 153.438 152.333 174.236ZM526.796 505.172C526.639 506.791 524.892 508.314 523.425 507.611C522.732 507.278 522.31 506.573 521.929 505.906C516.079 495.694 510.229 485.481 504.38 475.268C500.605 476.689 498.791 481.239 499.215 485.25C499.639 489.26 501.778 492.857 503.865 496.308C507.058 501.585 510.251 506.863 513.444 512.141C511.765 513.87 509.062 511.572 507.819 509.508C503.388 502.152 498.957 494.796 494.526 487.441C486.064 496.145 477.602 504.849 469.139 513.553C474.65 522.168 480.161 530.782 485.672 539.397C486.971 541.427 489.752 542.075 492.108 541.565C494.463 541.055 496.499 539.625 498.463 538.229C513.232 527.724 528.001 517.22 542.771 506.716C543.894 505.917 545.096 505.006 545.426 503.668C545.77 502.269 545.054 500.85 544.36 499.587C510.95 438.809 475.293 379.266 437.485 321.121C436.372 319.41 434.965 317.519 432.928 317.384C431.57 317.294 430.311 318.034 429.152 318.747C414.157 327.974 399.163 337.202 384.168 346.429C381.392 348.138 378.615 349.846 375.839 351.555C375.116 351.999 374.338 352.514 374.096 353.327C373.81 354.288 374.378 355.276 374.925 356.116C380.387 364.508 386.153 372.701 392.208 380.675C399.364 372.973 407.877 364.678 418.387 364.939C427.46 365.164 434.946 371.764 441.555 377.985C445.421 381.624 449.287 385.263 453.153 388.902C447.043 377.455 439.819 366.604 431.616 356.551C431.262 354.858 434.243 355.321 435.392 356.613C446.839 369.49 453.14 386.412 465.194 398.722C477.513 411.301 489.831 423.88 502.149 436.46C507.382 441.803 512.934 447.84 513.346 455.306C513.723 462.125 509.68 468.329 505.616 473.817C512.781 482.275 519.335 491.251 525.21 500.652C526.072 502.032 526.952 503.552 526.796 505.172ZM396.337 66.5258C401.525 67.5538 406.718 68.5834 411.807 70.0203C424.916 73.7216 437.103 80.0551 449.184 86.3461C459.727 91.8364 470.329 97.3632 479.792 104.557C480.821 78.8396 479.801 53.3041 471.244 29.0302C468.777 22.0303 462.817 14.4822 457.019 9.84829C450.212 4.40744 440.762 3.44997 432.135 4.68407C417.065 6.83986 403.34 14.9106 392.035 25.1059C380.73 35.3012 371.564 47.6021 362.476 59.8152C373.763 62.052 385.05 64.2889 396.337 66.5258ZM547.723 191.354C562.284 228.502 567.039 269.444 561.38 308.94C579.858 298.35 596.373 284.349 609.844 267.853C616.556 259.632 622.777 249.957 622.34 239.353C621.98 230.639 617.023 222.595 610.477 216.831C603.932 211.067 595.892 207.299 587.813 204.014C574.818 198.729 561.397 194.492 547.723 191.354ZM519.168 254.87C522.59 252.359 526.251 250.176 530.086 248.359C530.076 245.912 530.05 243.385 529.068 241.143C528.086 238.902 525.882 237.005 523.441 237.173C520.875 237.35 518.939 239.694 518.124 242.134C517.31 244.574 517.296 247.204 516.732 249.714C515.173 256.655 509.022 262.321 501.977 263.305C494.932 264.289 487.464 260.526 484.063 254.277C481.322 249.242 480.911 242.726 476.544 239.011C474.125 236.953 470.906 236.164 467.815 235.436C467.097 235.268 466.333 235.1 465.636 235.339C464.514 235.723 463.988 236.976 463.592 238.093C460.945 245.578 458.298 253.062 455.651 260.547C454.672 263.315 453.867 266.854 456.055 268.813C476.262 286.897 484.487 315.66 505.038 333.353C505.646 333.877 506.396 334.424 507.177 334.238C516.981 331.912 526.485 328.327 535.383 323.601C536.091 323.225 536.83 322.809 537.236 322.118C537.648 321.417 537.646 320.554 537.604 319.742C537.311 314.15 535.648 308.634 532.802 303.811C531.456 301.53 529.804 299.278 529.547 296.642C529.328 294.391 530.164 292.083 529.63 289.886C529.193 288.092 527.908 286.645 526.666 285.278C523.157 281.415 519.648 277.553 516.139 273.691C514.403 271.78 512.6 269.743 512.068 267.217C511.032 262.296 515.114 257.845 519.168 254.87ZM299.234 141.16C303.374 138.67 305.883 133.703 305.43 128.893C304.769 121.875 298.725 116.76 293.145 112.451C284.003 105.392 263.097 88.2396 253.906 84.5528C244.714 80.8659 204.048 117.141 189.917 131.049C189.203 131.751 188.459 132.517 188.26 133.499C188.061 134.48 183.743 145.041 192.437 147.608C201.132 150.175 202.064 148.197 205.616 145.041C209.168 141.885 211.236 137.408 212.905 132.96C214.33 129.16 218.64 127.342 222.616 126.532C226.593 125.722 230.878 125.42 234.167 123.043C237.592 120.568 242.376 120.712 246.28 122.33C250.184 123.948 253.408 126.827 256.551 129.654C259.176 132.015 263.42 129.375 265.038 126.236C266.656 123.098 267.336 119.226 270.166 117.115C274.213 114.096 280.423 116.798 282.915 121.189C286.459 127.433 283.953 136.349 277.676 139.834C274.038 141.853 268.715 143.207 268.57 147.365C268.498 149.432 269.941 151.25 271.549 152.552C274.434 154.885 279.132 155.993 281.59 153.213C285.093 149.251 281.181 140.879 286.033 138.774C290.317 136.916 295.233 143.568 299.234 141.16ZM409.857 96.8395C411.308 94.5881 412.763 92.1218 415.184 90.9744C418.277 89.5078 421.993 90.6728 424.927 92.436C427.862 94.1993 430.483 96.559 433.702 97.7252C436.978 98.9123 440.568 98.7519 444.048 98.5762C449.836 98.2841 455.625 97.992 461.413 97.6999C426.424 77.4274 387.068 63.2098 346.633 62.8103C343.224 62.7766 339.738 62.8543 336.539 64.0335C333.341 65.2126 330.436 67.6945 329.617 71.0031C328.368 76.0417 332.952 81.4273 338.14 81.588C335.43 83.572 335.847 88.1802 338.429 90.3286C341.011 92.4769 344.875 92.4602 347.975 91.1665C351.074 89.8729 353.586 87.5138 356.024 85.2035C360.561 80.9038 365.099 76.6041 369.636 72.3044C372.488 69.6019 376.929 69.4873 380.783 70.25C384.637 71.0126 388.41 72.4887 392.338 72.3933C400.585 72.193 407.89 80.6602 406.483 88.789C402.782 85.2982 397.397 83.6803 392.385 84.5528C387.372 85.4253 382.851 88.7674 380.546 93.3036C378.678 96.9813 374.508 98.9249 370.453 99.6815C366.398 100.438 362.209 100.28 358.169 101.115C354.13 101.949 350.011 104.076 348.359 107.855C346.706 111.635 348.865 117.025 352.973 117.406C357.757 117.85 360.55 112.232 364.574 109.607C368.404 107.109 373.403 107.436 377.871 108.407C382.34 109.378 386.807 110.91 391.363 110.516C399.28 109.831 405.552 103.519 409.857 96.8395ZM537.988 327.215C528.82 330.75 519.652 334.285 510.485 337.82C509.209 338.311 507.657 339.568 508.423 340.7C517.168 353.606 523.9 367.874 528.3 382.83C528.728 384.286 530.938 383.196 531.801 381.948C539.819 370.355 546.212 357.64 550.735 344.29C551.553 341.874 552.316 339.263 551.614 336.811C550.511 332.957 546.368 331.014 543.315 328.415C542.472 327.697 541.619 326.867 540.524 326.707C539.661 326.582 538.802 326.901 537.988 327.215ZM432.226 212.577C428.015 217.049 431.553 224.625 429.389 230.374C428.909 231.648 428.135 232.992 428.577 234.28C428.797 234.922 429.291 235.425 429.77 235.905C431.267 237.406 432.765 238.906 434.262 240.407C435.438 241.585 437.345 242.805 438.57 241.679C443.606 237.047 449.708 233.579 456.265 231.623C458.153 231.059 460.196 230.55 461.514 229.085C462.676 227.793 463.051 225.996 463.382 224.29C465.233 214.738 467.072 205.184 468.898 195.628C469.041 194.882 469.178 194.082 468.874 193.387C468.552 192.649 467.807 192.197 467.08 191.851C459.704 188.337 449.785 191.937 446.379 199.364C445.224 201.884 444.69 204.803 442.749 206.783C439.92 209.669 434.996 209.636 432.226 212.577ZM285.161 90.3972C283.735 89.1028 282.26 87.4786 282.401 85.5581C282.55 83.5111 284.446 82.0995 286.164 80.976C292.25 76.9952 298.337 73.0145 304.423 69.0337C304.275 67.8515 302.618 67.7266 301.446 67.9398C285.686 70.8057 270.246 75.4252 255.502 81.6858C271.944 91.8218 287.719 103.042 302.688 115.249C304.505 111.125 309.181 109.095 311.949 105.539C315.446 101.047 315.707 94.3756 320.008 90.6456C322.118 88.8152 325.253 87.5462 325.675 84.7849C321.983 84.8107 318.291 84.8365 314.599 84.8624C310.108 84.8937 305.327 85.0101 301.595 87.5091C298.339 89.6903 295.836 93.657 291.918 93.7689C289.336 93.8426 287.073 92.1331 285.161 90.3972ZM469.221 336.008C472.086 341.146 474.952 346.283 477.818 351.421C472.568 334.719 466.308 318.334 459.083 302.387C458.827 301.82 458.533 301.215 457.983 300.924C457.305 300.565 456.479 300.802 455.752 301.045C435.398 307.851 415.043 314.656 394.689 321.462C394.07 321.668 393.4 321.915 393.068 322.477C392.669 323.151 392.908 324.008 393.175 324.744C394.368 328.035 395.929 331.193 397.82 334.139C410.585 326.712 423.351 319.284 436.116 311.856C438.081 310.713 440.15 309.538 442.422 309.452C444.301 309.381 446.128 310.071 447.808 310.918C457.781 315.948 463.78 326.253 469.221 336.008ZM376.806 475.001C374.24 469.521 369.837 465.034 364.783 461.708C358.576 473.238 351.453 484.276 343.503 494.683C342.895 495.479 342.671 497.107 343.671 497.037C353.364 496.356 363.057 495.674 372.75 494.993C374.695 494.856 377.034 494.447 377.749 492.632C379.967 487.002 379.372 480.481 376.806 475.001ZM523.153 394.155C523.937 392.953 524.736 391.717 525.055 390.317C525.475 388.465 525.01 386.538 524.511 384.706C520.667 370.617 514.618 357.17 507.069 344.669C506.19 343.214 505.244 341.723 503.813 340.805C502.382 339.887 500.325 339.719 499.077 340.872C497.409 342.414 498.042 345.136 498.802 347.276C504.82 364.231 510.838 381.187 516.856 398.142C517.215 399.152 518.031 400.395 519.031 400.007C519.421 399.856 519.673 399.486 519.902 399.137C520.985 397.476 522.069 395.815 523.153 394.155ZM462.752 178.505C464.494 179.975 466.806 180.531 469.027 181.043C470.808 181.453 471.861 179.131 472.169 177.329C474.228 165.299 475.551 153.157 476.872 141.023C475.862 140.594 474.79 141.419 474.002 142.183C471.171 144.93 468.339 147.677 465.508 150.424C463.537 152.336 461.476 154.402 460.851 157.076C459.661 162.165 463.999 167.966 461.257 172.415C460.062 174.355 461.01 177.036 462.752 178.505ZM456.586 274.742C455.906 273.978 455.172 273.19 454.199 272.875C453.226 272.56 451.957 272.917 451.619 273.882C448.605 282.505 445.591 291.128 442.576 299.751C442.29 300.57 442.482 301.95 443.315 301.704C448.399 300.204 453.089 297.549 458.195 296.123C463.3 294.698 469.27 294.715 473.349 298.1C468.592 289.761 462.964 281.918 456.586 274.742ZM500.131 148.652C501.66 144.504 503.189 140.356 504.719 136.208C505.015 135.404 504.428 134.567 503.877 133.911C498.418 127.408 492.913 120.86 486.303 115.53C486.022 115.303 485.703 115.067 485.342 115.086C484.655 115.123 484.381 115.977 484.284 116.658C483.461 122.441 482.638 128.225 481.815 134.009C481.575 135.694 483.128 137.159 484.756 137.658C486.383 138.156 488.136 138.017 489.81 138.329C492.896 138.903 495.629 141.112 496.838 144.01C497.605 145.848 498.172 148.293 500.131 148.652ZM451.324 260.374C454.215 252.982 456.866 245.496 459.272 237.932C459.434 237.423 459.595 236.87 459.424 236.364C458.965 235.013 456.965 235.363 455.69 236.002C450.677 238.512 445.857 241.407 441.286 244.652C440.718 245.054 440.098 245.562 440.077 246.258C440.06 246.785 440.399 247.248 440.723 247.663C444.119 252.013 447.655 256.253 451.324 260.374ZM493.726 382.219C493.185 381.628 492.295 381.537 491.494 381.55C489.681 381.58 487.875 381.949 486.197 382.633C485.371 382.97 484.55 383.388 483.66 383.434C482.769 383.479 481.77 383.016 481.551 382.151C483.905 380.468 486.76 379.495 489.652 379.389C490.938 379.342 490.975 377.159 489.846 376.54C488.717 375.922 487.325 376.374 486.124 376.836C484.138 377.599 482.152 378.362 480.166 379.125C479.588 379.347 478.993 378.648 479.077 378.035C479.16 377.421 479.658 376.955 480.151 376.579C481.937 375.214 484.069 374.306 486.29 373.963C487.349 373.8 487.52 372.157 486.746 371.416C485.973 370.675 484.782 370.627 483.713 370.682C480.601 370.845 477.517 371.519 474.622 372.67C477.091 377.1 479.611 381.501 482.184 385.871C482.85 387.002 483.573 388.185 484.726 388.811C486.798 386.194 489.949 384.459 493.269 384.108C494.066 384.023 494.268 382.81 493.726 382.219ZM536.248 462.139C534.346 462.625 532.461 463.179 530.598 463.8C530.088 463.97 529.499 464.236 529.412 464.766C529.361 465.082 529.513 465.391 529.661 465.675C530.755 467.778 531.849 469.881 532.943 471.983C533.387 472.836 534.281 473.838 535.11 473.35C537.839 471.746 540.887 470.686 544.024 470.253C544.887 470.134 545.451 469.208 545.471 468.337C545.491 467.466 545.105 466.644 544.728 465.858C544.082 464.512 543.373 463.093 542.102 462.308C540.394 461.253 538.195 461.643 536.248 462.139ZM543.591 485.25C542.847 485.386 541.987 485.61 541.696 486.308C541.458 486.877 541.709 487.522 541.958 488.086C542.907 490.24 543.856 492.393 544.805 494.547C545.102 495.22 545.494 495.974 546.212 496.135C546.722 496.248 547.24 496.017 547.712 495.79C549.175 495.09 550.638 494.389 552.101 493.688C552.924 493.294 553.796 492.855 554.248 492.061C554.699 491.268 554.46 490.026 553.58 489.784C553.11 489.654 552.614 489.839 552.176 490.052C550.866 490.688 549.685 491.614 548.286 492.021C546.888 492.427 545.107 492.115 544.443 490.819C547.889 489.595 551.184 487.944 554.227 485.916C553.954 484.014 551.288 483.845 549.398 484.19C547.462 484.544 545.527 484.897 543.591 485.25ZM515.437 435.802C515.997 435.192 516.81 434.894 517.59 434.617C519.736 433.854 521.883 433.091 524.029 432.328C525.145 431.931 524.871 430.076 523.819 429.534C522.766 428.991 521.495 429.33 520.363 429.679C517.908 430.435 515.453 431.191 512.998 431.947C512.678 432.046 512.341 432.154 512.116 432.403C511.603 432.972 511.948 433.868 512.313 434.542C513.286 436.339 514.258 438.136 515.231 439.933C515.345 440.143 515.472 440.366 515.688 440.467C515.949 440.589 516.255 440.496 516.528 440.402C519.515 439.37 522.503 438.337 525.49 437.305C526.203 437.058 527.059 436.607 526.999 435.855C526.917 434.83 525.414 434.822 524.433 435.133C521.36 436.108 518.287 437.084 515.214 438.059C514.672 437.433 514.877 436.411 515.437 435.802ZM553.629 318.568C550.984 320.063 548.339 321.558 545.693 323.053C545.375 323.232 545.041 323.428 544.867 323.749C544.405 324.598 545.317 325.52 546.12 326.059C547.766 327.161 549.411 328.264 551.056 329.366C551.38 329.583 551.729 329.808 552.119 329.812C553.005 329.82 553.461 328.777 553.689 327.921C554.419 325.171 555.149 322.422 555.879 319.672C555.97 319.327 556.06 318.949 555.912 318.624C555.554 317.84 554.379 318.144 553.629 318.568ZM518.802 441.96C518.162 442.124 517.435 442.363 517.195 442.978C517.017 443.436 517.179 443.952 517.387 444.397C517.923 445.541 518.771 446.537 519.815 447.249C522.59 446.19 525.365 445.13 528.141 444.071C529.333 443.615 530.745 442.849 530.695 441.573C530.659 440.66 529.796 439.952 528.9 439.776C528.004 439.6 527.083 439.829 526.198 440.057C523.732 440.691 521.267 441.325 518.802 441.96ZM478.589 342.121C479.56 344.016 481.962 344.565 484.064 344.906C487.417 345.449 490.769 345.992 494.122 346.536C494.18 344.633 492.217 343.368 490.473 342.604C487.277 341.204 483.942 340.123 480.532 339.382C480.164 339.302 479.781 339.226 479.415 339.314C478.323 339.577 478.077 341.12 478.589 342.121ZM466.161 340.686C466.423 340.587 466.689 340.485 466.916 340.319C467.916 339.584 467.612 337.857 466.591 337.15C465.57 336.443 464.188 336.538 463.004 336.91C461.819 337.282 460.714 337.899 459.503 338.172C457.867 338.542 455.727 338.525 455.1 340.081C454.565 341.409 455.792 342.914 457.191 343.222C458.59 343.529 460.024 343.013 461.363 342.505C462.962 341.899 464.562 341.293 466.161 340.686ZM472.597 352.67C473.948 351.788 473.323 349.467 471.886 348.733C470.45 348 468.723 348.343 467.151 348.702C465.492 349.082 463.721 349.526 462.591 350.798C461.462 352.07 461.463 354.454 463.004 355.174C465.099 356.153 467.064 353.389 469.35 353.047C470.443 352.884 471.672 353.273 472.597 352.67ZM520.023 427.038C520.476 426.886 520.955 426.716 521.247 426.337C521.572 425.916 521.583 425.315 521.4 424.816C520.969 423.648 519.623 423.026 518.378 423.049C517.133 423.071 515.96 423.601 514.829 424.12C513.388 424.781 511.948 425.442 510.507 426.103C509.715 426.467 508.819 426.961 508.689 427.823C508.555 428.699 509.36 429.494 510.226 429.679C511.093 429.865 511.985 429.605 512.832 429.344C515.238 428.603 517.635 427.834 520.023 427.038ZM526.514 457.542C529.617 456.237 532.719 454.933 535.822 453.628C536.115 453.505 536.419 453.375 536.632 453.139C537.262 452.441 536.687 451.225 535.809 450.889C534.931 450.554 533.95 450.813 533.047 451.075C530.95 451.682 528.854 452.289 526.757 452.896C525.597 453.232 524.299 453.684 523.811 454.788C523.143 456.298 524.993 458.182 526.514 457.542ZM547.458 475.629C548.697 475.151 548.245 473.062 547.014 472.562C545.784 472.061 544.402 472.575 543.156 473.034C540.713 473.934 538.195 474.63 535.636 475.114C534.744 476.314 535.831 478.154 537.27 478.561C538.709 478.969 540.227 478.422 541.622 477.884C543.567 477.132 545.513 476.381 547.458 475.629ZM481.408 336.59C483.908 337.245 486.408 337.901 488.908 338.556C489.859 338.805 491.326 338.665 491.257 337.684C486.939 334.699 481.972 332.66 476.802 331.751C476.528 331.703 476.239 331.659 475.978 331.754C475.081 332.08 475.423 333.469 476.098 334.143C477.495 335.537 479.499 336.09 481.408 336.59ZM490.854 326.932C491.738 329.058 492.622 331.184 493.506 333.31C494.039 334.591 494.637 335.951 495.812 336.688C496.986 337.424 498.898 337.112 499.283 335.78C499.576 334.765 498.89 333.751 498.238 332.919C495.748 329.745 493.185 326.629 490.55 323.575C489.966 324.585 490.406 325.855 490.854 326.932ZM486.572 330.927C487.041 331.089 487.612 331.235 487.992 330.914C488.435 330.539 488.275 329.814 487.974 329.318C486.878 327.514 484.661 326.8 482.631 326.223C479.902 325.448 477.173 324.673 474.444 323.897C473.595 323.656 472.957 324.894 473.354 325.681C473.751 326.468 474.664 326.822 475.497 327.11C479.189 328.382 482.881 329.655 486.572 330.927ZM523.064 448.141C522.297 448.373 521.463 448.655 521.044 449.338C520.298 450.553 521.388 452.137 522.67 452.761C525.565 450.405 529.253 449.044 532.983 448.954C534.253 448.924 534.363 446.796 533.287 446.122C532.21 445.448 530.814 445.796 529.598 446.164C527.42 446.823 525.242 447.482 523.064 448.141ZM510.942 414.914C509.182 415.379 507.422 415.844 505.663 416.31C504.049 416.736 502.026 417.792 502.413 419.416C502.743 420.798 504.674 421.112 505.97 420.53C507.266 419.948 508.255 418.819 509.545 418.224C511.654 417.251 514.623 417.605 515.805 415.607C514.798 414.176 512.634 414.466 510.942 414.914ZM444.99 321.857C444.652 322.003 444.304 322.17 444.081 322.463C443.506 323.219 444.133 324.395 445.023 324.727C445.913 325.059 446.902 324.82 447.825 324.599C450.93 323.856 454.09 323.341 457.27 323.06C457.579 321.316 455.299 320.338 453.528 320.268C450.611 320.152 447.67 320.7 444.99 321.857ZM496.45 389.508C497.362 388.542 496.846 386.389 495.542 386.643C492.084 387.318 488.751 388.626 485.757 390.482C485.057 391.907 486.993 393.385 488.561 393.138C490.129 392.89 491.389 391.74 492.858 391.139C494.088 390.635 495.537 390.474 496.45 389.508ZM498.344 358.264C497.934 357.747 497.279 357.501 496.657 357.279C493.635 356.198 490.613 355.118 487.591 354.037C486.764 353.741 485.838 353.447 485.033 353.8C484.229 354.152 483.908 355.485 484.695 355.875C488.567 357.789 492.683 359.208 496.911 360.089C497.351 360.18 497.843 360.257 498.222 360.016C498.779 359.661 498.753 358.782 498.344 358.264ZM484.116 322.71C484.547 322.966 485.113 322.483 485.125 321.982C485.136 321.481 484.799 321.045 484.46 320.676C481.214 317.134 476.45 315.48 471.893 313.957C470.737 313.571 469.046 313.44 468.709 314.611C473.977 317.048 479.122 319.752 484.116 322.71ZM551.329 479.837C551.056 478.888 550.054 478.297 549.071 478.198C548.089 478.099 547.113 478.391 546.169 478.68C544.52 479.184 542.872 479.688 541.223 480.192C540.084 480.54 538.7 481.225 538.795 482.412C538.873 483.379 539.999 483.957 540.963 483.864C541.928 483.771 542.779 483.226 543.653 482.808C545.56 481.894 547.736 481.553 549.831 481.838C550.81 481.971 551.601 480.787 551.329 479.837ZM447.934 329.08C447.92 329.973 448.618 330.823 449.496 330.985C450.063 331.089 450.642 330.933 451.198 330.778C454.407 329.884 457.616 328.989 460.825 328.095C460.876 327.193 460.097 326.414 459.232 326.152C458.367 325.891 457.439 326.025 456.546 326.161C454.215 326.515 451.884 326.87 449.554 327.225C448.671 327.359 447.948 328.188 447.934 329.08ZM500.94 393.269C501.068 392.431 500.243 391.691 499.402 391.585C498.561 391.48 497.735 391.823 496.957 392.159C494.48 393.229 492.004 394.298 489.527 395.367C488.791 396.302 489.697 397.785 490.858 398.048C492.019 398.311 493.197 397.78 494.269 397.263C495.961 396.447 497.653 395.632 499.344 394.816C500.04 394.481 500.823 394.033 500.94 393.269ZM465.522 307.517C465.807 308.026 466.375 308.296 466.907 308.534C471.32 310.511 475.732 312.488 480.145 314.465C480.928 314.816 482.071 315.055 482.457 314.288C482.872 313.466 481.849 312.68 481.001 312.319C476.254 310.303 471.507 308.286 466.76 306.269C466.521 306.168 466.266 306.064 466.011 306.107C465.436 306.203 465.237 307.009 465.522 307.517ZM488.375 364.444C488.227 364.382 488.068 364.318 487.91 364.349C487.746 364.381 487.61 364.524 487.586 364.69C487.972 367.331 490.935 368.632 493.474 369.456C496.792 370.533 500.11 371.61 503.428 372.687C504.225 371.805 502.923 370.583 501.828 370.121C497.343 368.229 492.859 366.337 488.375 364.444ZM463.84 333.495C464.21 332.798 463.653 331.926 462.951 331.565C461.724 330.934 460.244 331.286 458.914 331.651C457.399 332.067 455.883 332.482 454.368 332.898C453.277 333.198 451.96 333.764 451.92 334.896C451.889 335.742 452.688 336.435 453.521 336.59C454.354 336.745 455.204 336.5 456.016 336.258C458.177 335.613 460.338 334.968 462.5 334.322C463.017 334.168 463.587 333.972 463.84 333.495ZM538.961 456.368C538.06 455.847 536.927 456.152 535.936 456.469C532.782 457.477 529.628 458.485 526.475 459.494C525.777 460.611 527.046 462.096 528.361 462.175C529.675 462.253 530.867 461.486 532.028 460.864C534.139 459.733 536.466 459.005 538.845 458.732C539.88 458.613 539.862 456.89 538.961 456.368ZM478.73 360.624C477.72 360.354 476.65 360.542 475.621 360.732C474.349 360.967 473.076 361.201 471.804 361.436C470.361 361.702 468.531 362.449 468.684 363.908C468.774 364.769 469.624 365.391 470.481 365.516C471.338 365.641 472.199 365.386 473.028 365.134C475.567 364.361 478.107 363.587 480.646 362.814C480.671 361.768 479.74 360.895 478.73 360.624ZM470.068 343.517C469.362 342.796 468.199 342.744 467.229 343.025C466.259 343.305 465.39 343.856 464.443 344.204C463.326 344.614 462.118 344.735 461.005 345.156C459.891 345.577 458.816 346.418 458.623 347.592C459.041 348.57 460.444 348.46 461.471 348.184C464.19 347.452 466.91 346.719 469.63 345.987C470.605 345.724 470.775 344.238 470.068 343.517ZM466.284 356.825C465.151 357.155 465.346 359.027 466.379 359.597C467.412 360.166 468.688 359.852 469.822 359.524C472.2 358.838 474.577 358.151 476.955 357.464C477.129 356.276 476.042 355.201 474.87 354.943C473.698 354.684 472.485 355.022 471.332 355.357C469.649 355.847 467.967 356.336 466.284 356.825ZM479.774 189.547C481.286 188.458 481.053 186.211 481.098 184.348C479.127 184.108 476.969 183.908 475.307 184.994C473.646 186.081 473.201 189.014 474.979 189.895C475.59 190.198 476.303 190.19 476.985 190.175C477.953 190.154 478.988 190.112 479.774 189.547ZM483.584 347.915C482.632 347.817 481.245 348.238 481.516 349.156C481.646 349.597 482.13 349.813 482.562 349.97C486.706 351.468 491.032 352.46 495.414 352.916C495.957 352.791 496.116 352.023 495.832 351.544C495.548 351.065 495.002 350.817 494.485 350.61C491.001 349.209 487.32 348.299 483.584 347.915ZM464.3 301.918C467.884 303.76 471.537 305.468 475.248 307.037C475.969 307.342 476.787 307.644 477.512 307.347C478.236 307.049 478.513 305.836 477.795 305.522C473.576 303.676 469.356 301.829 465.136 299.982C464.466 299.689 463.511 299.479 463.148 300.115C462.751 300.812 463.586 301.552 464.3 301.918ZM499.773 363.691C499.163 363.137 498.342 362.889 497.551 362.656C494.222 361.678 490.892 360.7 487.563 359.722C487.103 359.587 486.59 359.455 486.159 359.667C485.728 359.879 485.572 360.604 486.003 360.815C490.558 363.048 495.367 364.763 500.306 365.917C500.715 365.201 500.384 364.246 499.773 363.691ZM502.385 415.071C504.759 414.231 507.133 413.391 509.507 412.552C510.551 412.182 511.672 411.754 512.27 410.822C512.117 409.986 511.213 409.46 510.363 409.443C509.514 409.426 508.709 409.794 507.939 410.154C505.859 411.126 503.778 412.098 501.697 413.07C500.946 413.421 500.08 413.938 500.067 414.767C500.457 415.528 501.579 415.356 502.385 415.071ZM483.521 367.591C484.076 366.974 483.577 365.902 482.806 365.594C482.036 365.287 481.167 365.499 480.365 365.713C477.64 366.442 474.916 367.171 472.191 367.9C471.697 368.473 472.141 369.441 472.836 369.74C473.531 370.04 474.328 369.88 475.067 369.716C477.525 369.171 479.983 368.625 482.442 368.079C482.834 367.992 483.253 367.89 483.521 367.591ZM516.814 418.654C516.253 418.53 515.679 418.752 515.146 418.97C512.242 420.157 509.337 421.344 506.433 422.531C505.591 422.875 505.931 424.303 506.785 424.615C507.638 424.927 508.571 424.523 509.389 424.127C511.885 422.919 514.381 421.711 516.877 420.502C517.161 420.365 517.464 420.209 517.603 419.927C517.858 419.411 517.376 418.777 516.814 418.654ZM495.488 372.526C494.37 372.112 492.757 371.896 492.311 373.001C496.247 375.028 500.423 376.591 504.723 377.647C505.601 377.116 504.504 375.864 503.542 375.508C500.857 374.514 498.173 373.52 495.488 372.526ZM441.336 318.127C440.584 318.981 441.324 320.6 442.462 320.591C445.062 318.893 448.098 317.87 451.195 317.647C450.214 316.419 448.513 315.953 446.946 316.076C445.378 316.199 443.9 316.823 442.453 317.44C442.047 317.613 441.627 317.796 441.336 318.127ZM504.95 381.915C505.801 382.121 507.142 381.882 506.93 381.032C503.374 379.427 499.626 378.247 495.792 377.525C495.369 378.096 495.623 378.959 496.152 379.433C496.682 379.907 497.403 380.09 498.094 380.257C500.379 380.81 502.664 381.363 504.95 381.915ZM502.26 386.37C504.251 386.986 506.313 387.374 508.392 387.524C508.808 386.974 508.57 386.133 508.061 385.667C507.552 385.201 506.854 385.016 506.185 384.846C504.064 384.306 501.943 383.767 499.823 383.228C499.052 384.553 500.796 385.917 502.26 386.37ZM547.601 499.425C547.126 500.591 547.743 502.222 548.992 502.384C550.547 500.892 551.882 499.171 552.94 497.294C552.338 496.643 551.275 496.8 550.442 497.107C549.26 497.542 548.076 498.259 547.601 499.425ZM514.392 402.577C513.38 401.634 512.13 400.949 510.792 400.603C510.577 402.5 511.665 404.476 513.383 405.308C513.795 405.507 514.283 405.644 514.704 405.465C515.767 405.013 515.237 403.364 514.392 402.577ZM509.415 390.658C508.719 390.156 507.82 390.06 506.965 389.98C505.913 389.882 504.86 389.784 503.808 389.686C503.298 390.914 504.742 392.109 506.058 392.301C507.373 392.494 508.813 392.231 509.962 392.899C510.483 392.217 510.11 391.16 509.415 390.658ZM517.571 413.788C517.984 414.14 518.492 414.454 519.031 414.395C519.221 411.812 517.476 409.409 515.304 407.999C515.049 410.142 515.928 412.388 517.571 413.788ZM510.829 396.379C509.611 395.707 508.177 395.431 506.796 395.604C507.297 396.95 508.489 398.016 509.882 398.365C510.627 398.552 511.558 398.469 511.964 397.816C512.371 397.164 511.569 396.084 510.94 396.526M442.583 312.703C441.428 312.908 440.344 313.495 439.541 314.35C440.977 314.754 442.613 314.346 443.69 313.315C443.424 312.958 443.012 312.714 442.572 312.653" fill="#00160A"/>
<path fill-rule="evenodd" clip-rule="evenodd" d="M417.8 427.595C429.584 416.276 446.124 417.872 457.693 430.293C467.753 441.099 465.362 455.374 453.937 467.347C449.627 471.819 440.974 474.785 434.713 474.058C429.412 473.532 421.158 469.625 416.256 466.024C413.987 464.356 411.911 460.919 409.954 455.698L409.665 454.918C406.187 445.276 408.536 435.084 416.414 428.688L416.783 428.394L416.866 428.28C416.935 428.195 417.013 428.115 417.103 428.04L417.246 427.93L417.407 427.827L417.742 427.658L417.8 427.595ZM438.285 466.476L434.721 470.288L435.114 470.321C438.768 470.587 442.342 470.015 445.592 468.633L445.773 468.553L445.521 468.539C443.276 468.378 440.902 467.692 438.437 466.547L438.285 466.476ZM427.887 459.317L427.553 459.011L427.202 459.353C425.82 460.699 424.415 462.079 422.979 463.501L421.352 465.116C421.813 465.451 422.292 465.779 422.791 466.099C425.045 467.568 427.479 468.682 429.998 469.405L430.539 469.554L433.144 466.81L435.094 464.747L434.966 464.671C432.516 463.166 430.108 461.319 427.887 459.317ZM444.887 459.412L440.639 463.958L440.853 464.051C444.159 465.436 447.098 465.699 449.628 464.678L449.894 464.564L449.638 464.275C448.36 462.845 446.986 461.428 445.482 459.98L444.887 459.412ZM419.292 449.82L418.538 450.561C417.452 451.618 416.357 452.667 415.251 453.709L413.512 455.335L413.658 455.683C414.835 458.396 416.476 460.758 418.613 462.824L418.689 462.896L418.932 462.65C420.479 461.08 422.077 459.49 423.742 457.861L425.037 456.599L424.685 456.245C422.748 454.275 421.091 452.346 419.696 450.397L419.292 449.82ZM451.826 451.987L447.19 456.948L447.237 456.992C449.016 458.689 450.642 460.355 452.151 462.037L452.609 462.553L452.623 462.537C454.206 460.388 453.933 456.886 452.033 452.457L451.826 451.987ZM435.605 451.315L435.261 451.638C433.676 453.125 432.069 454.652 430.43 456.228L429.967 456.672L430.399 457.053C432.665 459.034 434.837 460.698 437.007 462.039L437.417 462.286L440.327 459.197L442.33 457.063L441.668 456.476C440.467 455.415 439.169 454.304 437.537 452.932L435.605 451.315ZM460.374 442.844L453.959 449.705L454.168 450.108C454.521 450.804 454.868 451.51 455.208 452.228L455.713 453.313L456.183 454.358C456.662 455.369 456.993 456.376 457.17 457.368L457.196 457.536L457.387 457.192C459.983 452.433 461.047 447.536 460.396 442.985L460.374 442.844ZM446.264 442.769L445.935 442.332L444.765 443.314L441.506 446.009L440.923 446.499C440.323 447.005 439.785 447.469 439.288 447.909L438.71 448.428L438.113 448.979L439.457 450.101C440.957 451.358 442.262 452.477 443.483 453.555L444.644 454.59L448.372 450.596L450.145 448.688L450.132 448.662C449.017 446.696 447.692 444.688 446.264 442.769ZM426.407 443.171L426.128 442.897L426.04 442.991C424.95 444.133 423.85 445.265 422.741 446.389L421.634 447.501L421.865 447.854C423.213 449.874 424.88 451.846 426.825 453.757L427.317 454.234L427.406 454.318L427.558 454.173C428.681 453.1 429.834 452.009 431.025 450.89L432.944 449.093L432.679 448.872C430.519 447.032 428.434 445.136 426.407 443.171ZM414.552 435.891L414.446 436.068C411.807 440.505 410.993 446.019 412.218 451.273L412.328 451.723L412.383 451.937L412.937 451.421C414.093 450.331 415.241 449.232 416.381 448.122L417.54 446.982L417.43 446.78C415.531 443.247 414.537 439.659 414.552 435.973L414.552 435.891ZM435.514 432.57L434.138 434.151C432.576 435.929 430.992 437.687 429.386 439.427L428.44 440.443L428.676 440.672C430.546 442.481 432.484 444.242 434.507 445.973L435.448 446.769L436.346 445.942C436.923 445.418 437.541 444.878 438.24 444.285L439.386 443.324L442.079 441.106C442.566 440.704 443 440.342 443.403 440.001L443.798 439.666L443.607 439.443C442.683 438.37 441.813 437.449 441.09 436.773L440.878 436.578C439.41 435.254 437.805 434.042 436.017 432.889L435.514 432.57ZM454.96 432.377L454.816 432.63C453.329 435.151 451.28 437.512 448.492 440.082L448.259 440.294L448.343 440.41C449.561 442.121 450.715 443.91 451.81 445.778L452.206 446.466L455.325 443.098L459.27 438.816L459.179 438.592C458.271 436.436 456.924 434.413 455.132 432.551L454.96 432.377ZM418.046 434.294L418.031 434.439C417.71 437.839 418.376 441.183 419.936 444.473L419.976 444.554L420.392 444.138C421.312 443.206 422.226 442.268 423.134 441.322L423.827 440.595L423.546 440.308C421.947 438.662 420.379 436.961 418.831 435.197L418.046 434.294ZM419.596 430.534L419.358 430.649L419.419 430.723C421.53 433.241 423.681 435.625 425.906 437.913L426.134 438.145L427.063 437.149C428.692 435.383 430.3 433.597 431.884 431.791L432.656 430.903L432.573 430.858C432.181 430.645 431.779 430.432 431.367 430.218L430.741 429.897C427.068 428.094 424.355 428.294 419.966 430.358L419.596 430.534ZM442.567 424.102L441.214 425.78C440.3 426.904 439.378 428.02 438.448 429.129L437.796 429.901L437.962 430.006C440.423 431.593 442.519 433.316 444.243 435.225L444.634 435.669C445.015 436.112 445.392 436.561 445.763 437.017L446.189 437.548L446.248 437.495C448.993 434.936 450.932 432.605 452.262 430.101L452.3 430.024L451.948 429.746C448.389 426.949 445.783 425.287 443.024 424.265L442.567 424.102ZM437.125 423.14C433.639 423.115 430.464 423.738 427.534 425.018L427.367 425.092L427.659 425.13C428.301 425.225 428.93 425.387 429.55 425.621L429.859 425.744C431.519 426.475 433.045 427.207 434.477 427.968L434.955 428.227L435.893 427.121C436.848 425.983 437.794 424.839 438.731 423.687L439.067 423.27L438.659 423.224C438.319 423.189 437.979 423.165 437.638 423.152L437.125 423.14Z" fill="#FFB61D"/>
<path fill-rule="evenodd" clip-rule="evenodd" d="M496.384 184.453C497.486 181.469 501.454 180.237 504.382 181.481C507.31 182.724 509.127 185.833 509.586 188.981C510.045 192.129 509.348 195.328 508.452 198.38C507.635 201.163 506.649 203.897 505.501 206.56C505.395 206.808 505.252 207.085 504.989 207.144C504.709 207.207 504.45 206.989 504.249 206.785C499.274 201.744 496.275 194.803 496.014 187.726C495.973 186.622 496.001 185.49 496.384 184.453ZM504.984 185.181C504.168 184.481 503.114 184.023 502.039 184.056C499.53 184.132 497.78 186.869 497.835 189.378C497.891 191.887 499.228 194.165 500.525 196.314C501.455 197.853 502.384 199.392 503.313 200.931C503.63 201.455 504.253 202.053 504.746 201.69C504.945 201.544 505.022 201.287 505.086 201.049C505.467 199.651 505.847 198.253 506.227 196.855C506.771 194.856 507.319 192.825 507.285 190.754C507.252 188.683 506.557 186.529 504.984 185.181L504.984 185.181Z" fill="#FFB61D"/>
<path fill-rule="evenodd" clip-rule="evenodd" d="M503.343 193.214C502.732 193.386 502.065 193.354 501.473 193.123C500.325 192.676 499.533 191.446 499.599 190.216C499.666 188.986 500.586 187.848 501.776 187.527C503.578 187.041 505.607 188.702 505.487 190.564C505.41 191.773 504.509 192.886 503.343 193.214Z" fill="#FFB61D"/>
</svg>
