<svg width="375" height="394" viewBox="0 0 375 394" fill="none" xmlns="http://www.w3.org/2000/svg">
<path fill-rule="evenodd" clip-rule="evenodd" d="M353.061 236.228C347.591 249.149 338.103 251.397 328.057 261.706C318.011 272.016 287.84 266.116 277.459 272.116C249.316 288.384 248.431 306.785 200.921 309.169C183.838 310.026 168.854 308.083 153.579 306.103C137.567 304.028 118.586 310.37 96.9217 297.08C44.0721 264.66 11.1946 211.357 9.96265 183.336C8.99382 161.3 24.7847 146.112 35.4187 136.018C58.0225 114.561 87.1223 120.459 114.383 112.87C152.847 102.162 177.505 79.5288 205.059 80.9013C243.958 79.8835 268.225 111.369 298.843 112.87C320.614 113.938 393.547 140.591 353.061 236.228Z" fill="#A764FC"/>
<path fill-rule="evenodd" clip-rule="evenodd" d="M118.13 291.793C118.891 293.578 118.952 296.284 117.083 296.802C114.615 295.588 112.857 293.039 112.598 290.302C102.479 290.743 92.3609 291.184 82.2426 291.625C78.4818 291.789 73.8402 292.591 72.7207 296.185C72.2835 293.353 68.5437 292.702 65.6783 292.741C57.116 292.856 48.5536 292.971 39.9913 293.086C39.8607 289.177 39.7302 285.269 39.5996 281.36C39.5743 280.603 39.5566 279.809 39.8963 279.131C40.8083 277.313 43.4274 277.506 45.4075 277.973C44.771 271.61 44.1346 265.246 43.4981 258.882C40.5458 259.558 41.4956 251.988 38.5239 252.572C36.725 252.926 35.0291 251.274 34.6451 249.482C34.2612 247.689 34.8212 245.844 35.3754 244.096C37.0454 243.586 39.4389 244.091 41.1314 243.586C42.8239 243.081 43.8553 242.106 43.7962 240.34C42.5684 203.683 39.9177 167.074 35.8519 130.623C33.2563 131.739 30.1653 129.724 29.1211 127.098C28.0768 124.473 28.5241 121.516 29.0705 118.743C29.2622 117.77 29.4977 116.737 30.2122 116.049C31.123 115.172 32.5228 115.117 33.787 115.115C73.4549 115.024 113.123 114.934 152.791 114.844C153.655 114.842 154.608 114.872 155.247 115.454C155.831 115.987 155.985 116.832 156.107 117.613C156.578 120.65 157.041 123.816 156.114 126.747C155.187 129.677 152.415 132.27 149.362 131.911C151.032 168.089 152.702 204.267 154.372 240.445C157.093 239.85 160.276 240.857 161.633 243.29C162.991 245.722 161.753 249.398 159.034 250.007C160.769 251.449 159.932 254.518 158.023 255.72C156.115 256.922 153.687 256.799 151.441 256.594C149.195 256.389 146.798 256.17 144.806 257.229C145.276 261.588 145.218 266.004 144.632 270.35C146.564 269.198 149.179 269.318 150.996 270.643C152.258 271.563 153.405 269.324 153.393 267.763C153.365 264.126 153.337 260.49 153.309 256.853C155.279 261.37 155.827 266.496 154.857 271.327C157.286 271.517 159.714 271.706 162.143 271.896C162.873 271.953 163.663 272.035 164.199 272.535C164.732 273.032 164.87 273.811 164.963 274.535C165.561 279.202 165.471 283.958 164.699 288.6C148.964 287.509 134.035 287.858 118.394 289.892C118.002 289.892 117.369 290.008 118.13 291.793Z" fill="white"/>
<ellipse rx="0.262666" ry="1.05068" transform="matrix(0.933578 0.358374 -0.358362 0.933583 99.532 210.659)" fill="#FFB61D"/>
<path fill-rule="evenodd" clip-rule="evenodd" d="M222.478 216.027C222.478 216.027 220.271 165.887 221.551 140.841C221.691 138.106 221.844 135.304 221.034 132.688C220.225 130.073 218.229 127.64 215.538 127.133C215.007 122.441 215.078 117.682 215.748 113.008C254.529 113.209 293.31 113.411 332.09 113.613C332.231 116.563 332.371 119.514 332.511 122.465C332.643 125.259 331.537 129.214 328.796 128.658C327.682 128.432 327.148 129.968 327.09 131.103C326.608 140.425 326.127 149.747 325.646 159.069C324.216 186.772 322.786 214.518 323.746 242.242C326.224 242.365 328.703 242.489 331.181 242.613C331.839 244.169 332.51 245.825 332.265 247.496C332.02 249.168 330.468 250.769 328.816 250.416C330.256 253.773 326.415 257.981 322.941 256.853C323.219 260.867 323.498 264.881 323.777 268.895C323.829 269.652 323.908 270.473 324.422 271.031C326.025 272.774 329.459 270.084 331.152 271.739C331.381 275.687 331.611 279.635 331.84 283.583C331.902 284.659 331.909 285.886 331.127 286.628C330.601 287.126 329.845 287.273 329.131 287.394C315.22 289.746 300.96 290.024 286.968 288.216C287.719 291.813 288.3 296.064 285.756 298.716C283.88 300.673 284.079 303.48 284.924 302.155C284.76 303.875 283.161 305.335 281.433 305.343C279.951 305.499 280.246 303.022 281.257 301.928C283.478 299.523 286.35 297.372 287.057 294.177C287.765 290.981 280.028 292.611 280.247 294.567C278.847 292.988 279.03 290.269 280.628 288.891C276.461 289.842 272.137 290.102 267.886 289.659C273.255 288.845 278.625 288.032 283.994 287.218C282.466 282.987 265.041 294.187 264.655 302.608C263.819 297.762 264.435 292.676 266.403 288.169C265.929 287.418 265.316 286.754 264.603 286.224C269.499 284.307 259.667 294.816 258.07 290.823C252.69 291.436 247.309 292.049 241.928 292.662C242.123 293.647 242.631 294.568 243.361 295.258C240.17 295.72 236.966 292.68 237.26 289.469C235.691 292.3 238.112 295.675 240.605 297.74C243.098 299.805 246.12 302.125 246.014 305.36C243.536 306.228 240.491 304.462 240.015 301.88C240.916 303.557 239.89 299.886 238.803 300.229C236.785 300.867 235.31 306.51 236.281 304.634C236.174 307.157 233.733 309.337 231.214 309.159C229.429 305.653 232.378 300.754 236.311 300.69C237.932 300.663 238.894 298.631 238.467 297.067C238.04 295.503 236.732 294.363 235.489 293.322C234.652 294.415 233.572 295.319 232.349 295.951C232.31 294.107 232.672 292.255 233.405 290.561C231.751 292.439 230.819 294.937 230.837 297.439C229.993 295.377 230.069 292.958 231.039 290.952C226.147 291.785 221.181 292.176 216.219 292.117C215.402 286.45 214.584 280.783 213.767 275.116C216.835 274.286 220.014 273.866 223.193 273.869C221.6 264.336 223.193 264.071 221.214 259.779C220.945 259.196 219.99 260.311 219.34 258.997C218.69 257.683 218.4 254.262 218.4 254.262C218.4 254.262 215.747 253.875 215.538 253.161C214.717 250.358 213.795 247.855 215.791 246.347C217.919 244.739 221.251 246.117 223.48 244.654C223.011 242.802 223.651 236.334 222.125 232.313C220.924 229.149 218.422 230.564 215.758 228.275C214.03 226.79 212.145 225.277 211.39 223.127C210.636 220.977 211.665 218.032 213.922 217.718C216.129 217.411 217.797 219.595 218.926 221.516C218.418 219.82 219.775 217.832 221.539 217.686C223.722 224.569 222.478 216.027 222.478 216.027Z" fill="white"/>
<ellipse cx="260.547" cy="202.779" rx="0.525345" ry="1.05068" fill="#FFB61D"/>
<path fill-rule="evenodd" clip-rule="evenodd" d="M71.2022 145.153C71.4306 145.332 71.4707 145.662 71.2918 145.891L64.3945 154.696C64.2156 154.924 63.8854 154.964 63.657 154.785C63.4286 154.606 63.3885 154.276 63.5674 154.048L70.4647 145.243C70.6436 145.014 70.9738 144.974 71.2022 145.153Z" fill="#E7EAEE"/>
<path fill-rule="evenodd" clip-rule="evenodd" d="M80.1863 147.674C80.4071 147.863 80.4336 148.194 80.2454 148.415L71.0144 159.246C70.8262 159.467 70.4946 159.494 70.2738 159.305C70.053 159.117 70.0266 158.786 70.2148 158.565L79.4457 147.734C79.6339 147.513 79.9655 147.486 80.1863 147.674Z" fill="#E7EAEE"/>
<path fill-rule="evenodd" clip-rule="evenodd" d="M94.8307 148.389C95.0601 148.567 95.102 148.897 94.9244 149.126L87.3314 158.933C87.1537 159.163 86.8238 159.205 86.5944 159.027C86.365 158.85 86.323 158.52 86.5006 158.29L94.0937 148.483C94.2713 148.254 94.6012 148.212 94.8307 148.389Z" fill="#E7EAEE"/>
<path fill-rule="evenodd" clip-rule="evenodd" d="M115.326 147.597C115.561 147.767 115.614 148.096 115.444 148.331L109.261 156.896C109.092 157.131 108.763 157.184 108.528 157.015C108.293 156.845 108.24 156.516 108.41 156.281L114.593 147.716C114.762 147.481 115.091 147.428 115.326 147.597Z" fill="#E7EAEE"/>
<path fill-rule="evenodd" clip-rule="evenodd" d="M255.792 146.065C255.998 146.269 255.999 146.602 255.795 146.808L248.554 154.109C248.35 154.315 248.017 154.317 247.811 154.113C247.605 153.908 247.604 153.576 247.808 153.37L255.049 146.068C255.253 145.862 255.586 145.861 255.792 146.065Z" fill="#E7EAEE"/>
<path fill-rule="evenodd" clip-rule="evenodd" d="M265.809 148.099C266.01 148.308 266.004 148.64 265.795 148.841L256.281 157.998C256.072 158.199 255.739 158.193 255.538 157.984C255.337 157.775 255.343 157.442 255.552 157.241L265.066 148.084C265.275 147.883 265.608 147.889 265.809 148.099Z" fill="#E7EAEE"/>
<path fill-rule="evenodd" clip-rule="evenodd" d="M288.664 152.691C288.865 152.9 288.857 153.233 288.647 153.433L282.375 159.432C282.166 159.633 281.833 159.626 281.633 159.416C281.432 159.206 281.439 158.874 281.649 158.673L287.921 152.674C288.131 152.473 288.463 152.481 288.664 152.691Z" fill="#E7EAEE"/>
<path fill-rule="evenodd" clip-rule="evenodd" d="M300.596 153.113C300.793 153.325 300.781 153.657 300.569 153.855L294.065 159.901C293.852 160.098 293.52 160.086 293.322 159.874C293.125 159.661 293.137 159.329 293.349 159.131L299.853 153.085C300.066 152.888 300.398 152.9 300.596 153.113Z" fill="#E7EAEE"/>
<path fill-rule="evenodd" clip-rule="evenodd" d="M186.087 191.594C185.877 189.753 185.787 187.897 185.817 186.044C184.651 185.587 183.355 185.662 182.106 185.744C177.336 186.056 172.567 186.368 167.797 186.68C167.009 186.731 166.204 186.781 165.441 186.577C164.661 186.368 163.77 185.918 163.124 186.402C162.564 186.822 162.611 187.66 162.713 188.352C162.905 189.653 163.097 190.955 163.289 192.256C163.322 192.478 163.365 192.72 163.537 192.863C163.695 192.996 163.918 193.008 164.124 193.013C170.816 193.191 177.514 193.129 184.202 192.829C185.049 192.791 186.183 192.437 186.087 191.594V191.594Z" fill="white"/>
<path fill-rule="evenodd" clip-rule="evenodd" d="M208.976 160.415C209.124 159.836 208.582 159.267 207.996 159.143C207.411 159.018 206.81 159.2 206.23 159.346C203.917 159.927 197.492 159.925 196.619 159.931C194.067 159.948 191.514 159.966 188.961 159.983C188.356 159.987 187.844 160.485 187.629 161.051C187.414 161.616 187.434 162.24 187.456 162.844C187.479 163.469 187.503 164.093 187.526 164.717C187.54 165.09 187.588 165.525 187.908 165.716C188.046 165.799 188.212 165.819 188.373 165.836C190.847 166.097 193.342 166.166 195.828 166.044C200.225 165.827 204.623 165.01 209.002 165.462C208.564 163.819 208.555 162.063 208.976 160.415Z" fill="white"/>
<path fill-rule="evenodd" clip-rule="evenodd" d="M288.078 290.504C288.13 290.143 288.425 289.859 288.751 289.696C289.641 289.253 290.765 289.562 291.517 290.213C292.268 290.865 292.713 291.796 293.069 292.725C293.195 293.055 293.301 293.467 293.067 293.733C292.979 293.833 292.856 293.893 292.734 293.945C291.705 294.38 290.474 294.331 289.507 293.774C288.54 293.218 287.872 292.152 287.84 291.037C288.258 291.093 288.464 291.557 288.681 291.919C289.429 293.163 291.225 293.632 292.485 292.913C291.292 291.705 289.739 290.856 288.078 290.504Z" fill="#00160A"/>
<path fill-rule="evenodd" clip-rule="evenodd" d="M281.926 279.872C282.288 279.422 282.651 278.973 283.013 278.523C282.774 280.543 281.114 282.311 279.113 282.678C278.496 282.204 277.449 282.52 277.197 283.256C276.825 283.332 276.451 283.04 276.329 282.681C276.207 282.322 276.285 281.924 276.423 281.57C276.632 281.037 276.969 280.566 277.302 280.101C278.426 278.533 279.727 276.846 281.617 276.459C282.106 276.359 282.657 276.368 283.051 276.674C283.444 276.981 283.554 277.661 283.16 277.968C282.705 277.356 281.787 277.255 281.075 277.53C280.363 277.805 279.808 278.37 279.277 278.918C278.763 279.449 278.249 279.98 277.735 280.512C277.452 280.804 277.194 281.343 277.548 281.543C277.951 280.677 279.171 280.606 279.877 279.962C280.488 279.405 280.898 278.337 281.714 278.476C281.288 279.457 280.515 280.282 279.565 280.771C279.156 280.981 278.682 281.163 278.479 281.575C279.109 281.863 279.872 281.7 280.458 281.331C281.045 280.961 281.491 280.411 281.926 279.872Z" fill="#00160A"/>
<path fill-rule="evenodd" clip-rule="evenodd" d="M264.832 277.793C265.828 277.969 266.909 277.411 267.342 276.496C267.775 275.582 267.522 274.392 266.755 273.732C266.977 273.461 267.405 273.427 267.714 273.59C268.024 273.754 268.227 274.071 268.344 274.401C268.717 275.458 268.301 276.666 267.574 277.52C266.847 278.374 265.851 278.946 264.876 279.501C264.425 279.758 263.953 280.021 263.434 280.053C262.916 280.085 262.339 279.81 262.202 279.309C262.158 279.145 262.167 278.957 262.27 278.822C262.775 278.161 263.965 279.731 264.508 279.1C264.377 278.595 264.247 278.091 264.116 277.586C264.351 277.668 264.587 277.75 264.832 277.793Z" fill="#00160A"/>
<path fill-rule="evenodd" clip-rule="evenodd" d="M255.696 276.241C254.585 276.106 253.793 274.904 253.915 273.791C254.036 272.678 254.909 271.741 255.947 271.321C256.265 271.192 256.662 271.117 256.924 271.338C257.186 271.558 257.006 272.131 256.678 272.03C255.877 271.782 255.111 272.588 254.889 273.397C254.747 273.912 254.739 274.495 255.024 274.947C255.309 275.398 255.952 275.642 256.408 275.364C256.737 275.164 257.071 275.627 257.149 276.004C257.228 276.381 257.401 276.879 257.783 276.834C258.412 276.522 258.647 275.767 259.005 275.163C259.363 274.559 260.174 274.033 260.726 274.468C260.797 274.524 260.86 274.601 260.864 274.691C260.869 274.789 260.802 274.875 260.739 274.95C260.125 275.676 259.446 276.347 258.714 276.954C258.223 277.36 257.544 277.752 256.99 277.439C256.466 277.142 256.294 276.314 255.696 276.241Z" fill="#00160A"/>
<path fill-rule="evenodd" clip-rule="evenodd" d="M261.047 287.631C260.504 287.148 259.95 286.652 259.594 286.017C259.239 285.382 259.114 284.571 259.458 283.93C259.552 283.755 259.697 283.585 259.894 283.554C260.09 283.522 260.316 283.705 260.259 283.896C260.008 284.73 260.373 285.71 261.108 286.177C261.392 286.358 261.773 286.697 261.535 286.934C261.251 287.218 261.768 287.601 262.164 287.666C262.925 287.79 263.685 287.914 264.445 288.039C264.297 288.666 263.524 288.97 262.894 288.835C262.264 288.701 261.752 288.257 261.27 287.829C261.196 287.763 261.122 287.697 261.047 287.631Z" fill="#00160A"/>
<path fill-rule="evenodd" clip-rule="evenodd" d="M233.038 306.691C233.113 306.225 233.189 305.759 233.264 305.293C233.308 305.025 233.353 304.752 233.482 304.514C233.635 304.229 233.894 304.018 234.147 303.815C234.839 303.258 235.532 302.701 236.225 302.145C236.77 302.56 236.879 303.44 236.453 303.977C236.418 303.483 236.097 303.019 235.647 302.812C235.144 304.307 234.233 305.662 233.038 306.691Z" fill="#00160A"/>
<path fill-rule="evenodd" clip-rule="evenodd" d="M286.478 299.854C286.734 301.226 287.259 302.547 288.015 303.72C288.611 304.643 288.066 305.851 287.521 306.806C287.275 306.901 287.043 306.582 287.084 306.321C287.125 306.061 287.315 305.853 287.438 305.62C287.922 304.705 287.322 303.619 286.789 302.732C286.256 301.844 285.798 300.634 286.478 299.854L286.478 299.854Z" fill="#00160A"/>
<path fill-rule="evenodd" clip-rule="evenodd" d="M187.329 192.801C187.318 193.119 187.303 193.453 187.137 193.725C186.834 194.219 186.168 194.316 185.59 194.36C177.784 194.945 169.94 195.029 162.124 194.612C162.027 194.607 161.926 194.601 161.839 194.558C161.623 194.453 161.565 194.179 161.533 193.941C161.315 192.353 161.098 190.765 160.881 189.177C160.725 188.041 160.593 186.791 161.223 185.833C162.079 184.531 163.894 184.376 165.453 184.354C172.535 184.255 179.617 184.155 186.7 184.056C186.998 184.052 187.351 184.076 187.51 184.329C187.601 184.475 187.598 184.659 187.593 184.831C187.505 187.488 187.417 190.144 187.329 192.801ZM186.087 191.594C185.877 189.753 185.787 187.897 185.817 186.044C184.651 185.587 183.355 185.662 182.106 185.744C177.336 186.056 172.567 186.368 167.797 186.68C167.009 186.731 166.204 186.781 165.441 186.577C164.661 186.368 163.77 185.918 163.124 186.402C162.564 186.822 162.611 187.66 162.713 188.352C162.905 189.653 163.097 190.955 163.289 192.256C163.322 192.478 163.365 192.72 163.537 192.863C163.695 192.996 163.918 193.008 164.124 193.013C170.816 193.191 177.514 193.129 184.202 192.829C185.049 192.791 186.183 192.437 186.087 191.594V191.594Z" fill="#FFB61D"/>
<path fill-rule="evenodd" clip-rule="evenodd" d="M280.751 293.026C281.107 291.769 281.739 290.591 282.589 289.598C282.574 290.946 281.865 292.267 280.751 293.026L280.751 293.026Z" fill="#00160A"/>
<path fill-rule="evenodd" clip-rule="evenodd" d="M283.95 300.626C283.717 301.344 283.358 302.021 282.894 302.617C282.696 302.871 282.444 303.128 282.123 303.144C282.54 302.172 283.02 301.13 283.95 300.626L283.95 300.626Z" fill="#00160A"/>
<path fill-rule="evenodd" clip-rule="evenodd" d="M289.674 304.472C290.19 304.834 290.706 305.195 291.222 305.556C291.337 305.637 291.466 305.782 291.384 305.895C290.6 305.821 289.89 305.23 289.674 304.472Z" fill="#00160A"/>
<path fill-rule="evenodd" clip-rule="evenodd" d="M290.62 304.271C290.086 304.434 289.634 303.561 290.075 303.219C290.375 303.509 290.595 303.88 290.708 304.282L290.62 304.271Z" fill="#00160A"/>
<path fill-rule="evenodd" clip-rule="evenodd" d="M283.834 289.232C284.223 289.725 284.236 290.435 284.026 291.026C283.816 291.618 283.415 292.12 283.022 292.609C282.654 293.066 282.189 293.568 281.604 293.523C281.504 293.125 281.873 292.783 282.174 292.505C283.09 291.656 283.69 290.473 283.834 289.232Z" fill="#00160A"/>
<path fill-rule="evenodd" clip-rule="evenodd" d="M288.177 302.128C288.829 301.534 289.807 301.323 290.646 301.597C291.485 301.87 292.151 302.618 292.327 303.482C292.456 304.116 292.521 305.003 293.165 305.066C293.281 305.48 292.543 305.637 292.276 305.3C292.009 304.963 292.057 304.485 291.99 304.061C291.81 302.925 290.582 302.07 289.454 302.297C288.994 302.389 288.367 302.557 288.177 302.128L288.177 302.128Z" fill="#00160A"/>
<path fill-rule="evenodd" clip-rule="evenodd" d="M239.585 309.418C239.272 308.417 239.988 307.266 239.548 306.314C239.404 306.001 239.15 305.755 238.928 305.491C238.195 304.619 237.78 303.486 237.776 302.347C237.776 302 237.933 301.543 238.278 301.577C238.732 301.621 238.616 302.299 238.586 302.754C238.529 303.618 239.281 304.285 239.755 305.009C240.46 306.089 240.568 307.534 240.03 308.706C239.832 309.137 240.225 309.586 240.497 309.975C241.207 310.986 241.148 312.469 240.361 313.421C240.065 313.223 240.052 312.786 240.16 312.447C240.269 312.108 240.466 311.79 240.487 311.435C240.53 310.689 239.807 310.131 239.585 309.418H239.585Z" fill="#00160A"/>
<path fill-rule="evenodd" clip-rule="evenodd" d="M254.914 204.003C255.323 203.552 256.02 204.043 256.59 204.257C257.693 204.671 258.911 203.874 260.078 204.042C259.428 205.383 257.593 205.54 256.116 205.348C255.746 205.3 255.356 205.233 255.071 204.993C254.786 204.752 254.664 204.28 254.914 204.003L254.914 204.003Z" fill="#00160A"/>
<path fill-rule="evenodd" clip-rule="evenodd" d="M257.786 199.733C257.569 199.458 257.602 199.068 257.646 198.72C257.677 198.473 257.708 198.225 257.739 197.978C257.813 197.396 258.052 196.655 258.639 196.65C259.252 196.645 259.486 197.445 259.499 198.058C259.509 198.589 259.481 199.161 259.159 199.583C258.836 200.006 258.114 200.151 257.786 199.733V199.733Z" fill="#00160A"/>
<path fill-rule="evenodd" clip-rule="evenodd" d="M254.101 196.963C254.389 197.03 254.455 197.404 254.461 197.7C254.481 198.68 254.279 199.953 253.315 200.134C252.844 199.244 252.932 198.087 253.533 197.279C253.67 197.094 253.877 196.912 254.101 196.963L254.101 196.963Z" fill="#00160A"/>
<path fill-rule="evenodd" clip-rule="evenodd" d="M256.005 198.248C256.078 198.374 256.029 198.532 255.988 198.672C255.578 200.042 256.032 201.632 257.103 202.58C256.302 203.086 255.183 202.387 254.906 201.481C254.629 200.575 254.925 199.605 255.22 198.704C255.34 198.337 255.813 197.913 256.005 198.248L256.005 198.248Z" fill="#00160A"/>
<path fill-rule="evenodd" clip-rule="evenodd" d="M210.449 166.885C209.043 166.975 207.637 167.064 206.231 167.154C200.147 167.541 194.064 167.928 187.981 168.316C187.122 168.37 185.968 168.196 185.869 167.341C185.561 164.694 185.617 162.004 186.035 159.372C186.21 158.275 187.631 157.982 188.742 157.945C195.461 157.724 202.181 157.502 208.901 157.281C209.728 157.253 210.461 157.889 210.808 158.64C211.155 159.391 211.196 160.243 211.231 161.07C211.298 162.652 211.365 164.234 211.432 165.816C211.444 166.091 211.446 166.394 211.268 166.604C211.076 166.831 210.745 166.866 210.449 166.885ZM208.976 160.415C209.124 159.836 208.581 159.268 207.996 159.143C207.411 159.018 206.81 159.2 206.23 159.346C203.917 159.927 197.492 159.925 196.619 159.931C194.066 159.948 191.514 159.966 188.961 159.983C188.356 159.987 187.844 160.485 187.629 161.051C187.414 161.616 187.434 162.24 187.456 162.844C187.479 163.469 187.503 164.093 187.526 164.717C187.54 165.09 187.588 165.525 187.908 165.716C188.046 165.799 188.212 165.819 188.373 165.836C190.847 166.097 193.342 166.166 195.828 166.044C200.225 165.827 204.623 165.01 209.002 165.462C208.564 163.819 208.555 162.063 208.976 160.415Z" fill="#FFB61D"/>
<path fill-rule="evenodd" clip-rule="evenodd" d="M108.637 274.471C108.351 274.564 107.921 274.579 107.869 274.282C108.304 273.764 109.203 273.74 109.665 274.235C109.419 274.503 109.009 274.606 108.665 274.486L108.637 274.471Z" fill="#00160A"/>
<path fill-rule="evenodd" clip-rule="evenodd" d="M260.539 195.197C260.929 195.614 261.288 196.082 261.451 196.63C261.56 196.993 261.042 197.276 260.692 197.131C260.341 196.987 260.144 196.624 259.936 196.307C259.727 195.991 259.419 195.67 259.041 195.697C258.658 195.724 258.408 195.2 258.597 194.865C258.786 194.531 259.243 194.425 259.612 194.534C259.981 194.643 260.276 194.916 260.539 195.197L260.539 195.197Z" fill="#00160A"/>
<path fill-rule="evenodd" clip-rule="evenodd" d="M124.611 264.546C124.151 262.338 123.64 260.118 122.678 258.078C121.716 256.038 120.258 254.168 118.282 253.081C117.24 252.509 116.09 252.169 114.994 251.711C113.652 251.15 112.386 250.407 111.241 249.509C112.263 248.933 113.529 249.474 114.57 250.014C116.998 251.271 119.482 252.572 121.313 254.602C123.751 257.304 124.754 260.982 125.479 264.548C125.216 264.699 124.873 264.698 124.611 264.546Z" fill="#00160A"/>
<path fill-rule="evenodd" clip-rule="evenodd" d="M113.228 283.61C113.232 283.434 113.271 283.225 113.433 283.155C113.946 282.931 114.119 284.378 114.582 284.062C115.12 283.696 115.879 284.497 115.599 285.085C115.318 285.673 114.433 285.756 113.916 285.36C113.399 284.964 113.21 284.261 113.228 283.61Z" fill="#00160A"/>
<path fill-rule="evenodd" clip-rule="evenodd" d="M111.512 277.221C110.933 276.252 111.141 275.005 111.553 273.955C111.801 273.322 112.182 272.657 112.832 272.454C113.481 272.251 114.334 272.878 114.078 273.508C113.471 273.703 112.84 273.934 112.427 274.419C112.015 274.904 111.925 275.722 112.405 276.141C112.643 276.349 112.596 276.731 112.49 277.029C112.384 277.327 112.238 277.648 112.345 277.946C112.451 278.245 112.974 278.342 113.048 278.034C113.131 277.696 113.656 277.71 113.904 277.954C114.152 278.198 114.251 278.559 114.48 278.821C114.71 279.083 115.207 279.18 115.362 278.869C115.51 278.572 115.993 278.591 116.195 278.855C116.396 279.118 116.355 279.504 116.195 279.794C115.848 280.426 114.958 280.687 114.325 280.343C113.952 280.141 113.695 279.782 113.379 279.499C113.064 279.216 112.613 279 112.223 279.167C111.851 279.327 111.527 278.817 111.545 278.413C111.563 278.008 111.719 277.568 111.512 277.221Z" fill="#00160A"/>
<path fill-rule="evenodd" clip-rule="evenodd" d="M97.8913 210.927C98.6432 210.276 98.9109 209.125 98.5231 208.21C98.3782 207.868 98.2374 207.333 98.5979 207.244C99.6953 208.204 99.7884 210.095 98.7907 211.158C98.6171 211.343 98.385 211.514 98.1336 211.48C97.8823 211.446 97.6995 211.093 97.8913 210.927L97.8913 210.927Z" fill="#00160A"/>
<path fill-rule="evenodd" clip-rule="evenodd" d="M96.151 205.131C96.7113 205.146 97.1333 205.711 97.1815 206.27C97.2297 206.828 96.9994 207.37 96.7541 207.874C96.6025 208.186 96.3491 208.545 96.0074 208.487C95.7499 208.443 95.5998 208.179 95.4887 207.942C95.2419 207.416 95.0027 206.854 95.0579 206.276C95.113 205.697 95.5702 205.115 96.151 205.131V205.131Z" fill="#00160A"/>
<path fill-rule="evenodd" clip-rule="evenodd" d="M100.085 207.76C99.6038 207.891 99.3374 207.21 99.3525 206.711C99.3658 206.27 99.4284 205.809 99.6863 205.451C99.9442 205.093 100.586 204.663 100.832 205.256C101.077 205.849 100.931 206.746 100.474 207.424C100.376 207.57 100.254 207.713 100.085 207.76Z" fill="#00160A"/>
<path fill-rule="evenodd" clip-rule="evenodd" d="M94.5602 211.238C94.725 211.207 94.8897 211.177 95.0545 211.146C95.1042 211.695 95.6376 212.067 96.1512 212.269C96.6648 212.471 97.2371 212.599 97.6229 212.994C97.7625 213.137 97.8585 213.398 97.6962 213.514C97.625 213.565 97.53 213.564 97.4425 213.558C96.095 213.469 94.6295 212.587 94.5602 211.238Z" fill="#00160A"/>
<path fill-rule="evenodd" clip-rule="evenodd" d="M94.3825 204.348C94.0155 204.266 94.0054 203.677 94.3075 203.453C94.6097 203.229 95.032 203.28 95.3933 203.385C96.1899 203.616 96.9228 204.063 97.4932 204.665C96.5022 205.107 95.2642 203.716 94.3825 204.348V204.348Z" fill="#00160A"/>
<path fill-rule="evenodd" clip-rule="evenodd" d="M71.3978 276.735C72.3528 277.182 73.6323 276.28 73.5311 275.23C74.146 275.762 74.8246 276.513 74.5482 277.277C74.4451 277.563 74.22 277.787 73.9803 277.973C73.1407 278.625 72.0758 278.912 71.0258 279.077C69.9259 279.249 68.6914 279.269 67.8253 278.569C66.9698 277.878 66.735 276.531 67.3062 275.591C67.4468 275.36 67.6458 275.143 67.9088 275.078C68.4851 274.937 68.9693 275.609 68.9624 276.203C68.9554 276.796 68.6589 277.346 68.5598 277.932C68.5421 278.036 68.5309 278.144 68.5568 278.247C68.6644 278.674 69.3194 278.689 69.6448 278.392C69.9702 278.095 70.0905 277.64 70.3152 277.261C70.5399 276.882 70.9986 276.548 71.3978 276.735ZM71.4167 278.57C71.6026 278.396 71.7885 278.223 71.9744 278.049C71.9046 277.826 71.6049 277.712 71.4049 277.833C71.2048 277.954 71.1655 278.272 71.3301 278.438L71.4167 278.57Z" fill="#00160A"/>
<path fill-rule="evenodd" clip-rule="evenodd" d="M67.0092 283.01C67.2325 283.64 68.1053 283.801 68.7152 283.528C68.8347 283.474 68.9559 283.401 69.0104 283.282C69.1683 282.937 68.6637 282.588 68.7359 282.216C68.7969 281.9 69.2153 281.811 69.5297 281.877C69.844 281.942 70.1672 282.091 70.4722 281.991C70.8257 281.875 70.9935 281.476 71.082 281.115C71.1705 280.753 71.24 280.353 71.5218 280.11C71.8036 279.867 72.3728 279.972 72.3846 280.344C72.4074 281.064 71.858 281.671 71.2828 282.105C70.7076 282.539 70.0492 282.909 69.6717 283.522C69.3132 284.105 69.1054 284.969 68.4246 285.036C68.2064 285.058 67.9907 284.98 67.7929 284.885C66.3719 284.204 65.5262 282.497 65.8462 280.954C65.9881 280.269 66.6729 279.518 67.2709 279.879C67.7546 280.172 67.6578 280.905 67.4112 281.413C67.1646 281.922 66.8204 282.477 67.0092 283.01V283.01Z" fill="#00160A"/>
<path fill-rule="evenodd" clip-rule="evenodd" d="M105.088 236.644C105.736 245.662 111.696 253.296 117.401 260.311C119.021 262.304 120.749 264.377 123.137 265.323C127.633 267.103 133.216 264.407 137.37 266.883C115.634 266.933 93.9002 268.123 72.2883 270.447C70.4284 270.647 68.5075 270.85 66.7193 270.301C64.9311 269.752 63.2968 268.24 63.2224 266.371C62.2728 242.483 61.3232 218.596 60.3735 194.708C60.1976 190.283 60.0197 185.84 59.2122 181.485C58.1553 175.787 58.13 169.953 58.1081 164.157C58.0796 156.621 58.051 149.085 58.0225 141.549C82.5205 140.488 107.056 140.308 131.567 141.009C132.573 142.505 132.776 144.382 132.944 146.176C135.789 176.556 136.672 207.081 137.554 237.58C137.818 246.719 138.082 255.858 138.346 264.997C137.893 264.846 137.439 264.695 136.986 264.544C135.918 235.683 134.849 206.822 133.781 177.962C133.76 177.411 133.704 176.786 133.27 176.446C132.937 176.186 132.479 176.176 132.057 176.178C109.336 176.261 86.6142 176.343 63.8929 176.426C62.1312 176.433 59.6566 177.349 60.2282 179.015C62.988 187.061 62.015 195.826 62.0479 204.332C62.0662 209.059 62.4058 213.778 62.7453 218.493C63.1593 224.243 63.5733 229.993 63.9873 235.743C64.9708 233.191 65.9542 230.639 66.9376 228.088C67.1657 227.496 67.3715 226.759 66.9507 226.284C63.8251 222.758 64.8049 216.458 68.854 214.048C69.6314 213.585 70.5014 213.243 71.1382 212.601C72.9301 210.792 72.0831 207.603 73.4045 205.427C75.3661 202.196 81.4265 202.076 81.6372 198.302C81.8275 194.894 84.9214 192.145 88.2721 191.492C91.6227 190.839 95.0947 191.902 98.1122 193.498C101.058 195.056 103.978 197.584 104.105 200.913C104.154 202.223 103.756 203.504 103.363 204.755C101.936 209.286 100.261 214.161 96.3206 216.814C101.404 222.153 104.559 229.29 105.088 236.644ZM101.343 248.701C104.268 254.46 109.82 258.562 112.674 264.355C112.802 264.615 112.936 264.891 113.178 265.05C113.453 265.232 113.807 265.223 114.136 265.214C116.633 265.142 119.139 265.398 121.57 265.973C115.815 260.982 111.475 254.579 107.538 248.058C106.118 245.706 104.703 243.208 104.564 240.464C104.157 232.462 101.22 224.607 96.2767 218.301C94.4594 215.983 90.5491 216.432 88.4616 218.51C86.3741 220.588 85.706 223.68 85.4017 226.61C85.3027 227.564 85.2357 228.553 85.5516 229.458C85.8676 230.363 86.6628 231.167 87.6208 231.201C88.5789 231.235 89.5113 230.227 89.1792 229.328C89.5194 230.057 89.8597 230.786 90.1999 231.515C88.804 233.016 86.0953 232.528 84.8109 230.93C83.5266 229.332 83.4179 227.065 83.8566 225.062C84.8918 220.336 88.8382 216.376 93.5613 215.325C93.6166 214.404 92.2536 214.13 91.4143 214.514C90.5751 214.898 89.7749 215.607 88.8658 215.447C88.0347 215.301 87.5608 216.331 87.2658 217.122C85.6034 221.577 80.8479 223.878 77.0025 226.675C75.6914 227.628 74.3974 228.707 72.8235 229.095C71.2495 229.484 69.2863 228.907 68.7256 227.386C63.9109 239.827 62.7705 253.664 65.4837 266.725C65.6765 267.653 66.5304 268.33 67.4414 268.593C68.3524 268.856 69.3222 268.782 70.2673 268.705C84.2818 267.572 98.2963 266.438 112.311 265.305C108.973 258.873 102.693 254.244 99.8327 247.585C99.1655 246.032 98.6945 244.387 97.8474 242.924C96.5647 240.709 94.4725 239.005 93.4252 236.669C92.1604 238.409 90.8956 240.148 89.6308 241.888C89.3462 242.28 89.4777 242.823 89.6208 243.285C89.9379 244.31 90.2694 245.363 90.9444 246.196C91.6194 247.03 92.7284 247.605 93.7676 247.338C95.8867 246.795 98.3008 247.71 99.5266 249.522C96.9348 249.033 94.3429 248.545 91.7511 248.056C91.3757 247.985 90.9818 247.906 90.6906 247.658C90.4436 247.448 90.3019 247.143 90.1676 246.848C89.6854 245.789 89.2031 244.73 88.7209 243.671C88.3004 242.747 87.8878 241.632 88.4242 240.771C88.8784 240.041 89.8221 239.822 90.5298 239.335C92.4831 237.99 92.2275 235.015 91.3372 232.817C90.4469 230.619 89.1131 228.356 89.6275 226.042C90.6813 229.466 91.759 232.943 93.7259 235.938C95.1779 238.149 97.0839 240.047 98.4151 242.333C99.5915 244.353 100.284 246.617 101.343 248.701ZM59.725 143.739C59.7849 149.091 59.8448 154.443 59.9048 159.795C59.918 160.975 60.3516 162.57 61.5274 162.477C84.7613 160.63 108.1 160.105 131.394 160.906C132.039 160.928 132.572 160.335 132.715 159.705C132.858 159.076 132.71 158.422 132.571 157.791C131.515 152.987 131.013 148.061 131.078 143.142C131.088 142.362 130.048 142.098 129.268 142.084C106.432 141.667 83.5861 141.793 60.7562 142.462C60.5316 142.469 60.2945 142.479 60.1056 142.6C59.7533 142.827 59.7203 143.32 59.725 143.739M133.704 173.963C133.792 169.948 133.548 165.926 132.976 161.951C131.106 162.654 129.055 162.87 127.08 162.571C125.121 162.275 123.132 162.258 121.151 162.241C112.07 162.166 102.988 162.092 93.9085 162.252C82.9214 162.446 71.9432 162.984 60.9722 163.609C60.6725 163.626 60.3491 163.653 60.122 163.849C59.8271 164.104 59.8023 164.545 59.8019 164.934C59.7987 168.045 59.9322 171.155 60.2019 174.254C60.2182 174.442 60.2398 174.642 60.3591 174.787C60.5469 175.017 60.8901 175.02 61.1861 175.004C82.8822 173.834 104.629 174.589 126.357 174.609C128.823 174.611 131.322 174.6 133.704 173.963ZM83.0719 196.378C82.4835 197.798 82.4591 199.449 81.6154 200.735C79.9018 203.347 75.6453 203.31 74.0426 205.991C72.7447 208.163 73.7361 211.322 72.0322 213.191C71.1758 214.131 69.8554 214.468 68.7862 215.155C66.5453 216.597 65.6102 219.629 66.2985 222.203C66.9868 224.778 69.087 226.836 71.5464 227.862C71.9835 228.044 72.4526 228.2 72.9226 228.142C73.4537 228.077 73.9108 227.75 74.3424 227.433C77.3187 225.251 80.295 223.069 83.2713 220.887C84.3673 220.084 85.505 219.232 86.0969 218.008C87.0995 215.936 86.3755 213.134 87.9572 211.462C88.5676 210.817 89.4442 210.453 89.9921 209.754C90.54 209.055 90.4727 207.745 89.6037 207.561C88.6564 207.361 88.9064 205.854 89.6586 205.244C90.4108 204.634 91.4794 204.253 91.7626 203.327C92.0295 202.454 91.6281 201.147 92.4916 200.851C92.9884 200.681 93.4808 201.068 93.9207 201.354C95.861 202.619 98.7904 201.958 99.9985 199.981C100.468 199.213 101.676 200.031 101.896 200.904C102.116 201.777 102.149 202.902 102.977 203.254C103.798 201.966 103.551 200.215 102.746 198.917C101.942 197.619 100.675 196.686 99.4089 195.832C96.811 194.081 93.9602 192.486 90.836 192.251C87.7119 192.016 84.2707 193.483 83.0719 196.378ZM92.384 207.623C91.6616 210.271 87.9407 211.419 87.6351 214.148C88.3312 214.911 89.6074 214.55 90.4677 213.978C90.906 213.687 91.3294 213.34 91.5687 212.871C91.808 212.403 91.823 211.788 91.4863 211.383C91.1937 211.032 91.8531 210.555 92.2444 210.792C92.6357 211.028 92.7335 211.539 92.8524 211.98C93.106 212.922 93.6252 213.79 94.3345 214.459C94.9254 215.016 95.7883 215.448 96.5342 215.126C96.8415 214.994 97.0851 214.75 97.3124 214.504C99.6701 211.956 101.136 208.599 101.403 205.138C101.433 204.745 101.416 204.281 101.094 204.053C100.778 203.83 100.348 203.96 99.9648 204.012C99.5812 204.064 99.0719 203.92 99.0541 203.533C99.4923 203.109 100.242 203.058 100.734 203.418C100.941 203.57 101.145 203.211 101.138 202.954C101.117 202.219 100.88 201.492 100.465 200.885C99.5515 201.904 98.3663 202.73 97.0212 202.98C95.6761 203.231 94.1691 202.827 93.3015 201.769C92.778 202.887 92.5457 204.139 92.6336 205.37C92.6652 205.812 92.0225 205.948 91.6029 205.806C91.1832 205.664 90.7039 205.415 90.3348 205.66C89.9764 205.898 90.0169 206.476 90.3035 206.797C90.59 207.118 91.0284 207.247 91.4429 207.362C91.7566 207.449 92.0703 207.536 92.384 207.623ZM65.9455 233.177C66.0095 232.905 66.0392 232.549 65.7939 232.415C65.1771 234.23 64.5976 236.057 64.056 237.896C63.848 238.601 63.6541 239.398 64.0111 240.042C64.2688 240.053 64.4008 239.742 64.4599 239.491C64.9551 237.387 65.4503 235.282 65.9455 233.177Z" fill="#00160A"/>
<path fill-rule="evenodd" clip-rule="evenodd" d="M123.966 286.272C137.342 285.194 150.779 284.878 164.191 285.328C163.8 280.819 163.409 276.309 163.018 271.8C149.335 272.417 135.652 273.034 121.97 273.65C121.549 277.656 119.995 281.536 117.535 284.725C116.35 286.262 117.369 288.432 118.13 290.217C118.891 292.002 118.952 294.708 117.083 295.226C114.615 294.012 112.857 291.463 112.598 288.726C102.479 289.167 92.3609 289.608 82.2426 290.049C78.4818 290.213 73.8402 291.015 72.7207 294.609C72.2835 291.777 68.5437 291.126 65.6783 291.165C57.116 291.28 48.5536 291.395 39.9913 291.51C39.8607 287.601 39.7302 283.693 39.5996 279.784C39.5743 279.027 39.5566 278.233 39.8963 277.555C40.8083 275.737 43.4274 275.93 45.4075 276.397C44.771 270.034 44.1346 263.67 43.4981 257.306C40.5458 257.982 41.4956 250.412 38.5239 250.996C36.725 251.35 35.0291 249.698 34.6451 247.906C34.2612 246.113 34.8212 244.268 35.3754 242.52C37.0454 242.01 39.4389 242.515 41.1314 242.01C42.8239 241.505 43.8553 240.53 43.7962 238.764C42.5684 202.107 39.9177 165.498 35.8519 129.047C33.2563 130.163 30.1653 128.148 29.1211 125.522C28.0768 122.897 28.5241 119.94 29.0705 117.167C29.2622 116.194 29.4977 115.161 30.2122 114.473C31.123 113.596 32.5228 113.541 33.787 113.539C73.4549 113.448 113.123 113.358 152.791 113.268C153.655 113.266 154.608 113.296 155.247 113.878C155.831 114.411 155.985 115.256 156.107 116.037C156.578 119.074 157.041 122.24 156.114 125.171C155.187 128.101 152.415 130.694 149.362 130.335C151.032 166.513 152.702 202.691 154.372 238.869C157.093 238.274 160.276 239.281 161.633 241.714C162.991 244.146 161.753 247.822 159.034 248.431C160.769 249.873 159.932 252.942 158.023 254.144C156.115 255.346 153.687 255.223 151.441 255.018C149.195 254.813 146.798 254.594 144.806 255.653C145.276 260.012 145.218 264.428 144.632 268.774C146.564 267.622 149.179 267.742 150.996 269.067C152.258 269.987 153.405 267.748 153.393 266.187C153.365 262.55 153.337 258.914 153.309 255.277C155.279 259.794 155.827 264.92 154.857 269.751C157.286 269.941 159.714 270.13 162.143 270.32C162.873 270.377 163.663 270.459 164.199 270.959C164.732 271.456 164.87 272.235 164.963 272.958C165.561 277.626 165.471 282.382 164.699 287.024C148.964 285.933 133.122 286.41 117.481 288.445C119.103 286.768 121.641 286.46 123.966 286.272ZM77.2854 274.429C78.414 271.29 82.5373 270.726 85.873 270.688C87.4083 270.671 88.9437 270.654 90.479 270.637C93.7996 270.599 97.1331 270.563 100.426 270.988C100.836 271.477 101.246 271.965 101.656 272.454C102.968 272.037 104.526 272.59 105.282 273.742C107.528 271.41 110.299 269.38 113.503 268.908C116.707 268.436 120.351 269.917 121.576 272.915C122.018 271.395 122.571 269.781 123.848 268.846C125.126 267.911 127.335 268.138 127.858 269.633C129.919 267.346 134.086 267.537 135.931 270.002C135.952 268.802 137.579 268.38 138.755 268.623C139.93 268.866 141.227 269.387 142.255 268.767C143.361 268.099 143.428 266.548 143.366 265.257C141.305 222.879 139.244 180.502 137.184 138.124C137.169 137.826 137.142 137.499 136.931 137.289C136.711 137.069 136.366 137.052 136.055 137.048C109.1 136.705 82.1439 136.362 55.1883 136.019C54.6092 136.012 53.9602 136.032 53.5568 136.447C53.1763 136.839 53.1512 137.444 53.1493 137.99C53.0306 171.988 54.3851 205.991 57.2078 239.872C57.3187 241.203 58.0536 242.998 59.3338 242.617C59.3988 246.442 59.4637 250.266 59.5286 254.091C59.5433 254.958 59.4874 255.97 58.7759 256.465C58.3804 256.74 57.8726 256.78 57.3917 256.81C53.4561 257.058 49.5204 257.306 45.5847 257.554C46.1994 263.636 46.814 269.718 47.4287 275.8C50.9511 275.918 54.4836 275.733 57.9743 275.247C56.3019 269.965 55.7137 264.342 56.2568 258.829C57.4373 258.926 57.8091 260.453 57.8693 261.636C58.0137 264.474 58.1581 267.313 58.3026 270.151C58.379 271.653 58.4928 273.259 59.4174 274.444C60.342 275.63 62.3951 276.032 63.2981 274.83C66.5148 270.549 73.8283 270.339 77.2854 274.429ZM152.038 221.806C150.612 191.347 149.185 160.888 147.759 130.429C110.822 130.056 73.8863 129.682 36.9502 129.309C42.2573 166.484 43.7805 204.082 45.2968 241.604C48.7728 242.015 52.2975 242.015 55.7733 241.602C54.7727 226.782 53.7721 211.962 52.7716 197.142C52.416 191.875 52.0603 186.607 51.886 181.331C51.741 176.942 51.7215 172.549 51.7021 168.158C51.6572 157.995 51.6123 147.832 51.5673 137.669C51.5624 136.553 51.9128 135.053 53.0292 135.058C81.0501 135.195 109.071 135.332 137.092 135.469C137.709 135.472 138.436 135.534 138.755 136.061C138.911 136.317 138.93 136.629 138.945 136.928C140.082 159.335 141.219 181.743 142.108 204.162C142.257 207.9 142.398 211.639 142.54 215.378C142.834 223.154 143.128 230.931 143.422 238.707C143.45 239.449 144.464 239.628 145.206 239.579C147.753 239.41 150.3 239.241 152.847 239.072C152.577 233.316 152.308 227.561 152.038 221.806ZM30.0467 124.63C30.5752 126.467 32.1129 128.159 34.0236 128.233C61.7949 129.307 89.6192 127.685 117.389 128.797C128.643 129.248 139.982 130.143 151.119 128.463C151.881 128.348 152.682 128.203 153.27 127.705C153.821 127.239 154.101 126.533 154.32 125.846C155.223 123.014 155.441 119.967 154.951 117.036C154.828 116.303 154.613 115.503 153.99 115.098C153.525 114.796 152.936 114.785 152.381 114.783C135.652 114.743 118.923 114.704 102.194 114.664C99.4896 114.657 96.7848 114.651 94.08 114.644C85.2195 114.623 76.359 114.602 67.4985 114.581C55.9799 114.554 44.4607 114.526 32.9435 114.704C31.0702 114.733 30.2944 117.081 30.0379 118.937C29.776 120.831 29.5183 122.792 30.0467 124.63ZM103.324 275.032C94.7582 275.342 86.1927 275.653 77.6273 275.963C78.3337 276.121 78.4058 277.134 78.1 277.791C77.7943 278.447 77.2687 279.067 77.3375 279.788C77.5535 282.052 76.8518 284.389 75.4251 286.16C74.4142 287.415 72.9639 288.979 73.8006 290.356C76.2058 289.171 78.9669 289.002 81.644 288.855C91.4798 288.314 101.316 287.772 111.151 287.231C111.792 284.847 108.268 282.623 109.246 280.356C109.469 279.838 109.113 279.268 108.773 278.818C107.386 276.977 105.627 274.948 103.324 275.032ZM41.4079 279.943C41.6155 283.289 42.0355 286.622 42.6647 289.914C51.095 289.889 59.5254 289.863 67.9558 289.837C68.3767 289.836 68.9757 289.498 68.7026 289.178C67.3644 287.609 66.0263 286.04 64.6881 284.471C63.9434 283.598 63.1707 282.668 62.9686 281.538C62.6631 279.83 63.6326 277.727 62.3857 276.52C55.8375 277.632 49.1744 278.065 42.5374 277.81C41.6255 277.775 41.3514 279.032 41.4079 279.943ZM111.148 283.481C111.921 284.797 111.445 286.791 112.677 287.693C114.758 289.218 114.422 293.161 116.894 293.901C117.335 293.457 117.787 292.996 118.014 292.413C118.24 291.831 118.181 291.088 117.705 290.682C116.401 289.568 116.1 287.622 116.456 285.944C116.813 284.266 117.71 282.763 118.479 281.229C119.369 279.453 120.1 277.598 120.66 275.693C120.911 274.841 121.077 273.788 120.43 273.181C119.89 272.676 118.932 272.66 118.599 272C118.426 271.657 118.484 271.227 118.292 270.893C118.083 270.529 117.641 270.382 117.236 270.268C115.918 269.896 114.553 269.565 113.191 269.712C111.829 269.86 110.454 270.574 109.863 271.809C109.362 272.856 107.601 272.346 106.786 273.172C105.96 274.008 106.733 275.441 107.678 276.138C108.624 276.836 109.843 277.439 110.083 278.59C110.299 279.623 109.599 280.716 109.923 281.72C110.143 282.404 110.783 282.861 111.148 283.481ZM37.0454 249.437C37.4511 250.077 38.3379 250.158 39.0958 250.159C45.0375 250.173 50.9567 249.496 56.86 248.821C57.9272 248.699 58.1896 247.254 58.0101 246.195C57.8307 245.136 57.567 243.85 58.3823 243.15C51.5832 242.662 44.7439 242.734 37.9565 243.365C37.6235 243.396 37.2602 243.442 37.029 243.684C36.7779 243.946 36.7663 244.35 36.7697 244.713C36.7807 245.876 36.7916 247.038 36.8025 248.201C36.8065 248.626 36.8176 249.077 37.0454 249.437ZM75.2886 274.292C74.0268 273.429 72.5464 272.525 71.0704 272.921C70.6905 273.023 70.2584 273.202 69.9333 272.981C68.3046 271.872 65.71 272.794 65.1466 274.682C64.9667 275.285 64.3144 275.596 63.9179 276.084C63.5213 276.572 63.6689 277.587 64.2911 277.495C64.808 277.419 65.0725 278.171 64.8524 278.645C64.6323 279.118 64.1665 279.434 63.9034 279.885C63.2024 281.088 64.1727 282.548 65.0906 283.594C66.5237 285.228 67.9568 286.862 69.3899 288.496C70.5981 289.874 71.8326 291.295 72.4537 293.019C73.3453 292.424 73.1614 291.08 72.8341 290.059C72.5068 289.039 72.1996 287.757 72.9868 287.03C73.3129 286.729 73.7929 286.575 73.9935 286.179C74.1941 285.783 73.6281 285.183 73.379 285.551C72.9338 286.207 72.1916 286.793 71.415 286.631C70.6383 286.469 70.2994 285.181 71.0387 284.893C71.2976 285.418 72.0934 285.131 72.562 284.78C73.2302 284.279 73.8985 283.779 74.5667 283.278C75.4336 282.629 76.368 281.872 76.5373 280.802C76.7177 279.662 76.0125 278.291 76.7995 277.446C76.1417 276.877 76.5095 275.744 76.0603 274.999C75.8786 274.698 75.5791 274.49 75.2886 274.292ZM143.692 247.921C144.437 247.559 145.284 247.483 146.109 247.411C150.343 247.043 154.573 246.628 158.797 246.166C159.323 246.109 159.867 246.045 160.322 245.775C161.238 245.232 161.518 243.936 161.106 242.954C160.695 241.971 159.739 241.299 158.722 240.981C157.706 240.664 156.622 240.654 155.557 240.664C152.03 240.695 148.505 240.911 145.001 241.31C144.38 241.381 143.684 241.499 143.323 242.01C142.999 242.468 143.058 243.084 143.131 243.64C143.318 245.067 143.505 246.494 143.692 247.921ZM42.9414 255.127C43.4273 255.901 44.4426 256.178 45.3543 256.12C46.266 256.062 47.1388 255.739 48.0401 255.59C50.9401 255.11 54.0686 256.429 56.7806 255.296C56.9962 255.205 57.2154 255.092 57.3463 254.899C57.4754 254.708 57.4996 254.467 57.5176 254.237C57.6033 253.139 57.6331 252.037 57.6066 250.936C57.6025 250.764 57.5877 250.572 57.4587 250.459C57.359 250.371 57.217 250.356 57.0847 250.346C52.2844 249.976 47.5168 251.474 42.7028 251.404C42.3799 251.399 42.2994 251.85 42.3329 252.171C42.391 252.726 42.4626 253.28 42.5477 253.832C42.6169 254.281 42.6998 254.742 42.9414 255.127ZM158.458 248.858C158.414 248.629 158.355 248.386 158.185 248.227C157.944 248.001 157.571 248.017 157.242 248.047C153.407 248.4 149.574 248.778 145.744 249.179C145.221 249.234 144.619 249.338 144.358 249.795C144.04 250.353 144.436 251.036 144.462 251.677C144.478 252.079 144.349 252.512 144.538 252.867C144.789 253.339 145.432 253.393 145.967 253.384C147.518 253.357 149.069 253.306 150.62 253.255C153.039 253.175 155.459 253.095 157.878 253.015C158.355 253 158.558 252.406 158.603 251.931C158.7 250.906 158.651 249.868 158.458 248.858ZM143.69 270.17C143.494 270.063 143.349 269.876 143.151 269.771C142.731 269.547 142.209 269.745 141.817 270.015C141.425 270.285 141.063 270.633 140.598 270.739C140.134 270.844 139.536 270.549 139.562 270.073C139.598 269.421 138.654 269.164 138.064 269.446C137.475 269.727 137.047 270.291 136.438 270.528C136.033 270.686 135.557 270.695 135.225 270.975C134.892 271.255 134.968 271.974 135.401 271.943C139.877 271.628 144.353 271.313 148.829 270.998C149.206 270.972 149.644 270.909 149.831 270.581C150.116 270.082 149.499 269.48 148.925 269.491C148.351 269.502 147.85 269.857 147.317 270.07C146.393 270.439 145.362 270.38 144.37 270.316C144.136 270.3 143.895 270.283 143.69 270.17ZM89.5367 274.053C93.0016 273.835 96.4666 273.617 99.9316 273.399C100.137 273.386 100.362 273.364 100.504 273.215C100.78 272.928 100.484 272.411 100.097 272.314C99.7107 272.217 99.3126 272.375 98.9259 272.472C98.5392 272.57 98.0688 272.583 97.8075 272.281C97.2581 271.648 96.1765 272.926 95.4621 272.488C94.4773 271.883 93.3148 271.532 92.163 271.628C91.0113 271.724 89.881 272.299 89.2282 273.253C89.0676 273.487 88.9654 273.865 89.2107 274.009C89.3067 274.066 89.4255 274.06 89.5367 274.053ZM127.014 269.016C126.484 268.716 125.835 269.121 125.408 269.554C124.896 270.073 124.448 270.909 124.899 271.482C125.209 271.875 125.78 271.911 126.28 271.914C127.47 271.921 128.66 271.928 129.85 271.935C130.064 271.936 130.287 271.935 130.477 271.838C130.769 271.689 130.909 271.356 131.026 271.049C131.258 270.44 131.433 269.621 130.9 269.245C130.701 269.104 130.448 269.07 130.206 269.041C129.691 268.979 129.092 268.945 128.739 269.325C128.262 269.839 128.454 270.9 127.786 271.114C127.446 270.425 127.683 269.394 127.014 269.016ZM86.9814 273.805C87.151 273.797 87.3255 273.788 87.4795 273.717C88.035 273.459 87.9045 272.531 87.3687 272.235C86.8329 271.938 86.1568 272.112 85.6156 272.399C85.1239 272.659 84.5392 272.371 84.0143 272.188C82.5677 271.682 80.8518 272.052 79.7422 273.109C79.4564 273.381 79.1961 273.803 79.3887 274.147C81.9196 274.033 84.4505 273.919 86.9814 273.805ZM131.866 272.063C131.953 272.119 132.061 272.128 132.165 272.133C132.952 272.17 133.935 271.889 134.062 271.11C134.136 270.659 133.824 270.178 133.382 270.06C132.626 269.858 131.958 270.643 131.747 271.397C131.682 271.63 131.663 271.932 131.866 272.063ZM124.137 270.532C124.173 270.202 123.991 269.706 123.697 269.859C123.395 270.415 123.21 271.035 123.157 271.665C123.138 271.895 123.141 272.144 123.276 272.331C123.411 272.517 123.723 272.586 123.869 272.408C123.94 272.322 123.955 272.204 123.967 272.092C124.024 271.572 124.08 271.052 124.137 270.532ZM74.5214 284.321C74.2907 284.778 74.4551 285.396 74.8824 285.677C75.1808 285.311 75.4983 284.869 75.3877 284.409C75.2771 283.95 74.458 283.809 74.3893 284.277M103.275 273.965C103.584 274.011 103.977 273.965 104.09 273.674C103.759 273.428 103.313 273.346 102.916 273.456C102.824 273.577 102.79 273.74 102.826 273.887C102.955 273.973 103.119 274.003 103.27 273.969L103.275 273.965Z" fill="#00160A"/>
<path fill-rule="evenodd" clip-rule="evenodd" d="M307.259 141.809C308.475 141.841 309.852 141.948 310.618 142.893C311.247 143.67 311.248 144.765 311.218 145.765C310.044 185.13 308.644 224.487 307.018 263.836C305.561 252.367 306.107 240.749 306.655 229.201C307.618 208.939 308.58 188.677 309.542 168.416C309.471 171.863 308.273 176.465 304.827 176.364C285.758 175.801 266.688 175.239 247.619 174.677C246.14 174.634 244.331 174.369 243.806 172.985C264.755 173.553 285.704 174.12 306.653 174.687C307.559 171.403 307.799 167.936 307.355 164.557C286.34 164.144 265.325 163.731 244.31 163.319C243.874 162.179 245.614 161.537 246.834 161.563C266.711 161.99 286.588 162.416 306.465 162.843C307.518 162.866 307.916 161.491 307.986 160.44C308.282 155.959 308.578 151.478 308.875 146.998C308.94 146.014 308.967 144.914 308.311 144.178C307.632 143.416 306.488 143.34 305.468 143.319C285.061 142.889 264.655 142.458 244.248 142.028C242.897 168.796 242.476 195.611 242.986 222.408C245.075 216.992 249.456 212.503 254.821 210.283C251.267 206.964 250.116 201.33 252.081 196.882C249.818 198.048 247.908 194.442 248.596 191.992C248.799 191.27 249.924 190.574 250.221 189.857C250.931 188.138 250.597 187.058 250.265 184.697C249.932 182.336 253.164 181.666 255.095 182.816C257.026 183.965 258.937 185.977 261.092 185.338C263.706 184.564 266.477 186.636 267.463 189.178C268.448 191.719 268.119 194.556 267.775 197.26C267.279 201.164 266.014 205.948 262.159 206.735C261.871 209.518 265.965 209.918 268.724 210.385C272.486 211.021 275.58 213.888 277.39 217.248C279.2 220.607 279.912 224.435 280.482 228.208C282.31 240.296 282.894 252.924 278.949 264.495C287.933 264.353 296.917 264.21 305.901 264.067C300.677 265.887 295.028 265.958 289.496 265.971C274.368 266.007 259.24 265.753 244.122 265.211C243.212 265.179 242.223 265.114 241.544 264.508C240.817 263.859 240.673 262.794 240.589 261.823C240.051 255.571 240.115 249.267 240.779 243.028C241.339 249.961 241.898 256.895 242.458 263.829C249.799 264.101 257.141 264.373 264.482 264.645C267.271 264.748 270.806 264.364 271.675 261.712C271.669 262.587 271.664 263.462 271.659 264.336C273.582 264.755 275.586 264.797 277.525 264.46C280.895 254.557 281.577 243.753 279.48 233.505C277.213 233.263 275.289 235.412 274.811 237.641C274.332 239.869 274.868 242.171 275.132 244.435C275.799 250.167 274.658 256.095 271.91 261.169C274.258 254.453 274.775 247.106 273.391 240.127C272.384 235.05 270.386 230.079 270.591 224.907C272.238 227.995 273.026 231.535 272.845 235.03C275.082 234.1 277.319 233.17 279.557 232.24C279.192 227.203 278.78 221.993 276.378 217.551C273.977 213.108 269.006 209.634 264.052 210.613C263.612 213.709 261.507 216.962 258.386 217.162C255.265 217.361 252.862 212.572 255.523 210.931C249.228 212.712 245.525 219.039 242.485 224.834C241.271 227.15 240.027 229.601 240.113 232.215C240.198 234.828 242.143 237.577 244.758 237.565C247.788 234.32 249.547 229.919 249.589 225.48C250.375 236.959 250.342 248.494 249.49 259.969C249.404 261.132 248.154 262.674 247.505 261.704C249.098 252.969 249.287 243.979 248.063 235.185C245.241 239.075 241.363 242.191 236.956 244.108C234.933 244.988 234.413 247.659 234.744 249.841C235.075 252.022 235.969 254.172 235.682 256.359C235.396 258.547 234.212 260.561 231.141 259.779C228.071 258.997 223.633 260.26 223.633 260.26C223.633 260.26 224.208 270.339 225.208 273.339C229.062 276.33 234.847 270.665 239.298 272.662C242.067 273.904 245.221 273.835 248.254 273.744C250.148 273.687 252.811 272.263 251.708 270.722C246.888 271.229 242.015 271.222 237.197 270.702C235.125 270.479 233.608 268.474 233.245 266.422C232.883 264.37 233.412 262.277 233.936 260.26C234.257 261.91 234.141 264.791 234.319 265.971C234.497 267.151 235.015 269.105 236.311 269.232C246.482 270.226 249.895 269.58 257.014 267.919C258.265 267.627 259.807 267.259 261.092 267.267C262.63 267.276 264.067 268.105 265.56 268.475C270.741 269.759 276.171 269.358 281.493 268.949C291.765 268.16 302.036 267.371 312.308 266.582C316.489 259.543 308.558 248.861 314.192 242.922C314.668 207.212 315.144 171.502 315.619 135.793C288.898 134.949 262.15 134.95 235.429 135.798C233.603 166.795 233.257 197.879 234.392 228.909C232.697 224.479 232.578 219.626 232.504 214.883C232.103 189.251 232.405 163.607 233.41 137.991C233.456 136.817 233.577 135.491 234.497 134.76C235.187 134.212 236.137 134.165 237.018 134.142C263.448 133.465 289.895 133.477 316.324 134.177C316.324 159.578 317.671 181.313 315.918 204.812C314.946 217.85 315.619 229.93 315.619 243.028C318.164 243.333 321.529 242.127 322.341 239.696C323.152 237.265 322.839 234.622 322.581 232.072C319.104 197.825 327 163.264 324.429 128.936C291.497 127.428 258.505 127.239 225.558 128.371C224.876 128.394 224.129 128.444 223.633 128.912C223.077 129.437 223.035 130.291 223.03 131.055C222.846 159.379 222.662 187.703 222.478 216.027C220.753 191.007 220.271 165.887 221.551 140.841C221.691 138.106 221.844 135.304 221.034 132.688C220.225 130.073 218.229 127.64 215.538 127.133C215.007 122.441 215.078 117.682 215.748 113.008C254.529 113.209 293.31 113.411 332.09 113.613C332.231 116.563 332.371 119.514 332.511 122.465C332.643 125.259 331.537 129.214 328.796 128.658C327.682 128.432 327.148 129.968 327.09 131.103C326.608 140.425 326.127 149.747 325.646 159.069C324.216 186.772 322.786 214.518 323.746 242.242C326.224 242.365 328.703 242.489 331.181 242.613C331.839 244.169 332.51 245.825 332.265 247.496C332.02 249.168 330.468 250.769 328.816 250.416C330.256 253.773 326.415 257.981 322.941 256.853C323.219 260.867 323.498 264.881 323.777 268.895C323.829 269.652 323.908 270.473 324.422 271.031C326.025 272.774 329.459 270.084 331.152 271.739C331.381 275.687 331.611 279.635 331.84 283.583C331.902 284.659 331.909 285.886 331.127 286.628C330.602 287.126 329.845 287.273 329.131 287.394C315.22 289.746 300.96 290.024 286.968 288.216C287.719 291.813 288.3 296.064 285.756 298.716C283.88 300.673 280.294 302.197 281.148 304.77C282.686 304.445 284.079 303.48 284.924 302.155C284.76 303.875 283.161 305.335 281.433 305.343C279.951 305.499 280.246 303.022 281.257 301.928C283.478 299.523 286.35 297.372 287.058 294.177C287.765 290.981 284.104 287.075 281.515 289.077C279.957 290.28 280.028 292.611 280.247 294.567C278.847 292.988 279.03 290.269 280.628 288.891C276.461 289.842 272.137 290.102 267.886 289.659C273.255 288.845 278.625 288.032 283.994 287.218C282.466 282.987 282.864 278.101 285.058 274.174C281.698 273.804 278.278 273.991 274.979 274.726C274.055 274.931 273.112 275.193 272.374 275.785C271.598 276.406 271.13 277.325 270.706 278.223C267.11 285.847 265.041 294.187 264.655 302.608C263.819 297.762 264.435 292.676 266.403 288.169C265.929 287.418 265.316 286.754 264.603 286.224C269.499 284.307 271.847 277.684 269.252 273.111C268.844 272.392 268.34 271.729 267.765 271.134C264.315 267.558 258.225 266.934 254.122 269.737C252.369 271.944 253.216 272.687 252.473 273.995C252.02 274.794 251.016 275.295 250.584 276.12C250.423 276.429 250.382 276.89 250.221 277.199C251.42 278.179 252.925 278.779 254.469 278.894C254.317 280.551 254.164 282.208 254.012 283.864C254.888 284.017 255.765 284.17 256.641 284.322C255.468 285.49 256.514 287.924 258.169 287.877C259.733 292.852 261.297 297.827 262.861 302.801C261.264 298.809 259.667 294.816 258.07 290.823C252.69 291.436 247.309 292.049 241.928 292.662C242.123 293.647 242.631 294.568 243.361 295.258C240.17 295.72 236.966 292.68 237.26 289.469C235.691 292.3 238.112 295.675 240.605 297.74C243.098 299.805 246.12 302.125 246.014 305.36C243.536 306.228 240.492 304.462 240.015 301.88C240.916 303.557 242.862 304.611 244.759 304.449C243.525 303.21 242.292 301.972 241.059 300.733C241.97 301.28 242.882 301.826 243.793 302.373C244.203 301.309 243.256 300.114 242.153 299.827C241.049 299.539 239.89 299.886 238.803 300.229C236.785 300.867 234.7 301.544 233.132 302.965C231.565 304.387 230.665 306.778 231.6 308.676C233.597 307.989 235.31 306.51 236.281 304.634C236.174 307.157 233.733 309.337 231.214 309.159C229.429 305.653 232.378 300.754 236.311 300.69C237.932 300.663 238.894 298.631 238.467 297.067C238.04 295.503 236.732 294.363 235.489 293.322C234.652 294.415 233.572 295.319 232.349 295.951C232.31 294.107 232.672 292.255 233.405 290.561C231.751 292.439 230.819 294.937 230.837 297.439C229.994 295.377 230.069 292.958 231.039 290.952C226.148 291.785 221.181 292.176 216.219 292.117C215.402 286.45 214.584 280.783 213.767 275.116C216.836 274.286 220.014 273.866 223.193 273.869C221.6 264.336 223.193 264.071 221.214 259.779C220.945 259.196 219.99 260.311 219.34 258.997C218.69 257.683 218.4 254.262 218.4 254.262C218.4 254.262 215.747 253.875 215.538 253.161C214.717 250.358 213.795 247.855 215.791 246.347C217.919 244.739 221.251 246.117 223.48 244.654C222.642 241.346 222.48 237.868 223.006 234.496C224.317 236.724 223.85 239.555 224.571 242.037C225.292 244.518 228.688 246.603 230.312 244.593C227.932 240.35 224.742 234.247 221.518 230.603C219.457 228.274 216.534 228.83 214.394 226.258C212.254 223.686 211.619 223.176 210.865 221.026C210.11 218.876 211.139 215.931 213.396 215.617C215.603 215.31 217.272 217.493 218.4 219.415C217.893 217.719 219.25 215.73 221.013 215.584C223.196 222.468 227.151 228.78 232.392 233.748C234.037 235.306 237.356 236.354 238.01 234.184C236.843 232.361 238.87 230.271 239.998 228.423C241.361 226.19 241.421 223.427 241.441 220.811C241.64 194.814 241.84 168.817 242.039 142.82C242.055 140.774 244.822 140.181 246.867 140.235C266.998 140.76 287.128 141.284 307.259 141.809ZM217.04 126.197C217.343 126.43 217.756 126.44 218.138 126.44C225.987 126.448 233.836 126.455 241.684 126.462C246.233 126.466 250.781 126.47 255.33 126.474C264.041 126.482 272.752 126.49 281.462 126.498C297.064 126.512 312.666 126.526 328.267 126.541C329.116 126.541 330.122 126.458 330.553 125.726C330.773 125.353 330.78 124.896 330.781 124.462C330.786 121.545 330.792 118.627 330.797 115.709C330.798 115.405 330.786 115.069 330.578 114.849C330.356 114.614 329.994 114.596 329.671 114.594C292.668 114.375 255.666 114.157 218.664 113.938C218.205 113.935 217.692 113.954 217.372 114.283C217.084 114.579 217.049 115.032 217.03 115.445C216.889 118.51 216.747 121.576 216.606 124.641C216.581 125.202 216.595 125.855 217.04 126.197ZM283.975 282.772C283.745 282.544 283.316 282.786 283.257 283.104C283.197 283.422 283.37 283.733 283.54 284.009C284.136 284.976 284.806 285.952 285.792 286.516C286.747 287.064 287.887 287.161 288.985 287.245C292.765 287.536 296.545 287.826 300.324 288.117C302.755 288.304 305.189 288.491 307.626 288.449C315.196 288.318 322.608 285.984 330.179 285.947C330.8 285.944 330.971 285.096 330.943 284.475C330.793 281.244 330.644 278.012 330.495 274.781C330.455 273.906 330.108 272.739 329.235 272.81C314.806 273.983 300.307 274.287 285.842 273.721C285.926 276.65 285.076 279.598 283.445 282.033C285.007 282.101 286.576 281.98 288.109 281.674C286.95 281.293 285.728 281.104 284.508 281.118C286.567 280.024 289.375 280.635 290.793 282.486C290.924 282.656 291.049 282.855 291.03 283.069C290.994 283.486 290.484 283.654 290.071 283.722C287.96 284.07 285.498 284.274 283.975 282.772ZM231.458 284.844C231.115 285.093 230.63 285.343 230.302 285.074C230.144 284.943 230.085 284.73 230.034 284.531C229.774 283.502 229.512 282.448 229.61 281.391C229.708 280.334 230.236 279.254 231.188 278.783C232.154 278.305 233.292 277.47 232.997 276.434C232.715 275.447 231.407 275.283 230.382 275.313C225.589 275.45 220.796 275.587 216.003 275.725C215.808 275.73 215.59 275.745 215.455 275.887C215.293 276.057 215.323 276.326 215.363 276.558C216.126 280.92 216.889 285.283 217.652 289.645C217.712 289.986 217.801 290.369 218.1 290.541C218.298 290.654 218.54 290.644 218.768 290.63C221.878 290.438 224.981 290.141 228.071 289.737C230.611 289.406 233.607 289.158 235.316 291.066C235.305 289.382 236.571 288.011 237.449 286.574C238.327 285.137 238.712 282.973 237.34 281.998C235.919 280.987 234.683 279.717 233.713 278.268C233.118 279.015 233.837 280.06 233.983 281.003C234.23 282.601 232.767 283.895 231.458 284.844ZM211.555 218.264C211.605 218.733 211.902 219.135 212.189 219.51C213.545 221.284 214.9 223.058 216.255 224.831C214.713 223.589 213.171 222.346 211.629 221.103C213.238 224.587 216.257 227.394 219.849 228.746C220.447 228.97 221.067 229.161 221.6 229.513C222.532 230.13 223.084 231.162 223.626 232.139C225.478 235.477 227.634 238.645 230.06 241.593C231.142 242.908 232.585 244.3 234.27 244.051C237.854 243.521 241.188 241.467 243.273 238.504C242.312 237.494 241.35 236.483 240.389 235.473C240.056 235.122 239.699 234.757 239.233 234.626C238.767 234.495 238.169 234.706 238.057 235.177C237.722 236.582 235.916 237.191 234.535 236.766C233.155 236.341 232.124 235.214 231.164 234.134C226.561 228.956 221.764 223.382 220.655 216.543C219.848 216.145 219.317 217.44 219.34 218.339C219.367 219.34 219.393 220.341 219.419 221.342C216.884 220.305 216.012 216.261 213.273 216.273C214.539 218.451 215.949 220.546 217.492 222.538C215.219 221.437 213.347 219.529 212.289 217.236C211.817 217.252 211.506 217.794 211.555 218.264ZM314.739 263.419C314.405 265.138 313.473 266.827 311.929 267.653C310.826 268.243 309.534 268.341 308.286 268.427C300.019 268.995 291.753 269.564 283.486 270.132C284.409 271.371 285.574 272.735 287.117 272.701C298.697 272.449 310.277 272.196 321.857 271.944C322.265 271.935 322.736 271.894 322.967 271.558C323.144 271.302 323.115 270.962 323.079 270.652C322.57 266.313 322.061 261.973 321.552 257.634C321.519 257.355 321.473 257.049 321.264 256.862C321.017 256.641 320.643 256.669 320.314 256.711C318.875 256.891 317.435 257.071 315.996 257.252C315.411 257.325 314.653 257.6 314.714 258.186C314.895 259.928 315.074 261.7 314.739 263.419ZM243.951 291.218C247.958 290.914 251.947 290.387 255.895 289.639C256.594 289.507 257.451 289.198 257.499 288.488C256.679 288.553 255.843 288.074 255.483 287.334C255.124 286.594 255.264 285.641 255.821 285.036C255.19 285.055 254.528 285.067 253.963 284.783C253.399 284.498 252.984 283.811 253.223 283.226C253.613 282.272 253.653 281.18 253.334 280.2C253.142 279.612 252.686 278.986 252.07 279.038C251.012 279.126 249.955 278.321 249.758 277.278C249.562 276.236 250.253 275.101 251.27 274.798C251.213 274.532 250.855 274.489 250.584 274.508C245.319 274.863 240.053 275.218 234.788 275.574C234.605 275.586 234.388 275.621 234.312 275.787C234.265 275.89 234.29 276.011 234.319 276.12C234.816 278.017 236.07 279.705 237.744 280.729C236.902 279.866 237.659 278.237 238.83 277.951C240 277.664 241.209 278.344 242.03 279.227C242.851 280.109 243.42 281.199 244.224 282.097C244.458 282.359 244.722 282.622 244.803 282.964C244.884 283.306 244.677 283.743 244.326 283.75C244.17 283.753 244.027 283.674 243.891 283.598C242.214 282.647 240.537 281.696 238.86 280.746C239.217 280.075 240.262 280.299 240.84 280.793C241.418 281.286 241.925 281.987 242.681 282.061C242.356 281.505 242.032 280.949 241.707 280.394C241.222 279.563 240.453 278.605 239.523 278.851C238.77 279.05 238.44 280.006 238.645 280.757C238.851 281.508 239.427 282.091 239.982 282.638C240.85 283.493 242.057 284.416 243.16 283.899C243.489 283.745 243.807 284.261 243.624 284.575C243.44 284.889 243.025 284.973 242.662 284.966C241.622 284.947 240.604 284.418 239.989 283.579C239.775 284.776 239.561 285.974 239.347 287.172C240.753 287.65 241.849 288.941 242.093 290.406C242.216 291.142 243.207 291.274 243.951 291.218ZM261.506 186.078C260.693 186.116 259.937 186.51 259.129 186.611C258.131 186.736 257.084 186.376 256.373 185.665C255.479 184.772 252.775 182.465 251.816 183.336C250.857 184.207 250.659 187.619 251.763 189.462C251.972 189.812 251.765 190.281 251.449 190.538C251.132 190.795 250.729 190.917 250.377 191.122C249.387 191.701 248.892 193.007 249.249 194.097C249.606 195.186 250.778 195.946 251.918 195.826C251.091 194.815 251.195 193.169 252.142 192.269C253.09 191.369 254.739 191.351 255.706 192.23C256.329 192.797 257.318 192.676 258.089 192.337C258.859 191.997 259.562 191.474 260.387 191.309C261.469 191.093 262.657 191.587 263.267 192.506C263.877 193.424 263.87 194.712 263.251 195.624C262.67 196.48 263.162 197.843 264.156 198.131C265.15 198.418 266.293 197.528 266.259 196.494C266.202 194.783 267.408 193.198 267.265 191.491C267.144 190.055 266.101 188.883 265.055 187.892C264.063 186.951 262.871 186.014 261.506 186.078ZM253.319 192.91C252.302 193.144 251.953 194.716 252.775 195.359C253.484 194.736 254.623 194.67 255.398 195.208C255.002 195.881 253.92 195.512 253.238 195.892C252.661 196.215 252.528 196.973 252.473 197.632C252.325 199.415 252.29 201.208 252.369 202.995C252.421 204.186 252.53 205.401 253.008 206.493C253.486 207.586 254.395 208.55 255.558 208.812C256.578 209.041 257.66 208.705 258.528 208.124C259.396 207.543 260.085 206.736 260.748 205.928C261.589 204.903 262.417 203.841 262.92 202.614C263.422 201.388 263.568 199.959 263.033 198.746C262.591 197.746 262.394 196.638 262.462 195.547C262.517 194.679 262.707 193.703 262.164 193.024C261.502 192.198 260.194 192.37 259.228 192.803C258.262 193.236 257.285 193.867 256.238 193.711C255.225 193.56 254.317 192.68 253.319 192.91ZM215.846 251.061C215.845 251.489 215.96 251.949 216.138 252.282C216.606 253.161 220.86 252.302 221.518 252.236C225.289 251.859 229.059 251.482 232.83 251.105C233.408 251.048 234.105 250.899 234.286 250.347C234.376 250.073 234.304 249.776 234.231 249.497C234.06 248.845 233.89 248.193 233.719 247.541C233.616 247.148 233.503 246.735 233.217 246.447C232.739 245.965 231.966 245.991 231.29 246.051C226.71 246.456 222.131 246.86 217.552 247.265C216.945 247.318 216.234 247.441 215.967 247.989C215.851 248.229 215.848 248.506 215.848 248.773C215.847 249.536 215.847 250.298 215.846 251.061ZM313.443 248.505C313.614 248.743 313.953 248.767 314.246 248.768C319.447 248.793 324.647 248.818 329.847 248.843C330.19 248.845 330.556 248.84 330.841 248.649C331.313 248.332 331.356 247.666 331.351 247.097C331.345 246.413 331.335 245.71 331.086 245.073C330.836 244.436 330.291 243.867 329.61 243.795C324.717 243.273 319.817 245.031 314.909 244.681C314.189 244.63 313.558 245.242 313.339 245.929C313.119 246.616 313.214 247.359 313.311 248.073C313.331 248.224 313.354 248.381 313.443 248.505ZM313.23 251.245C313.092 252.71 313.194 254.197 313.531 255.629C317.846 255.481 322.157 255.238 326.461 254.899C327.173 254.843 328.107 254.544 328.055 253.832C328.001 253.084 327.946 252.336 327.892 251.587C327.874 251.342 327.85 251.081 327.699 250.888C327.491 250.623 327.117 250.572 326.781 250.542C322.592 250.175 318.377 250.101 314.177 250.322C313.941 250.334 313.688 250.355 313.508 250.507C313.302 250.682 313.255 250.977 313.23 251.245ZM234.067 253.479C233.992 252.91 233.212 252.822 232.642 252.886C228.558 253.345 224.474 253.803 220.39 254.262C220.216 254.282 220.033 254.305 219.892 254.408C219.614 254.613 219.618 255.023 219.655 255.367C219.772 256.427 220.001 257.582 220.832 258.251C221.953 259.154 223.583 258.764 224.991 258.465C227.613 257.909 230.336 257.835 232.984 258.246C233.562 258.336 234.107 257.858 234.299 257.305C234.49 256.751 234.417 256.146 234.34 255.565C234.249 254.87 234.158 254.174 234.067 253.479ZM261.105 214.548C261.542 213.97 261.943 213.365 262.303 212.736C262.577 212.257 262.835 211.699 262.675 211.17C262.571 210.826 262.307 210.559 262.088 210.273C261.409 209.383 261.146 208.187 261.389 207.094C261.41 207 261.434 206.901 261.402 206.811C261.275 206.458 260.76 206.795 260.568 207.116C259.737 208.502 258.304 209.512 256.719 209.829C256.374 209.898 256.466 210.435 256.284 210.699C255.523 211.802 253.957 213.264 255.398 214.974C256.481 216.257 256.711 216.54 257.014 216.633C258.576 217.113 260.118 215.85 261.105 214.548ZM272.45 273.912C272.876 273.836 273.302 273.759 273.728 273.682C274.557 273.533 275.415 273.372 276.103 272.885C277.01 272.242 277.576 271.067 278.657 270.804C278.919 270.741 279.281 270.471 279.059 270.318C279.005 270.281 278.935 270.28 278.869 270.281C275.969 270.317 273.069 270.446 270.177 270.667C270.537 271.614 270.956 272.538 271.43 273.433C271.525 273.611 271.631 273.797 271.81 273.888C272.004 273.987 272.236 273.951 272.45 273.912ZM280.955 270.849C279.613 271.044 278.468 271.926 277.547 272.921C277.324 273.162 277.558 273.636 277.884 273.606C278.24 273.045 279.005 272.949 279.668 272.91C281.189 272.82 282.71 272.73 284.232 272.64C283.833 271.344 282.297 270.653 280.955 270.849ZM263.729 202.557C263.449 203.671 262.829 204.696 261.972 205.46C262.026 205.744 262.442 205.717 262.714 205.615C263.688 205.248 264.693 204.847 265.402 204.086C266.112 203.324 266.432 202.096 265.859 201.228C265.663 202.095 263.946 201.695 263.729 202.557ZM238.34 289.703C238.008 290.379 237.995 291.35 238.646 291.729C239.203 292.052 240.002 291.675 240.185 291.058C240.368 290.44 239.983 289.738 239.396 289.474C239.032 289.31 238.515 289.345 238.34 289.703ZM235.473 273.605C235.374 273.761 235.348 274.024 235.524 274.081C236.723 273.954 237.933 273.925 239.137 273.995C239.272 273.704 239.092 273.344 238.821 273.17C238.55 272.996 238.216 272.962 237.896 272.932C237.015 272.85 235.944 272.856 235.473 273.605ZM288.985 283.063C289.186 283 289.324 282.78 289.294 282.571C287.893 282.279 286.428 282.299 285.036 282.629C286.215 283.312 287.685 283.474 288.985 283.063ZM231.128 283.202C231.464 281.9 231.7 280.572 231.832 279.234C230.526 280.016 230.171 282.018 231.128 283.202ZM264.323 201.199C264.855 201.156 265.326 200.701 265.387 200.17C265.449 199.639 265.095 199.09 264.586 198.926C264.106 199.405 263.841 200.093 263.876 200.77C263.883 200.901 263.908 201.045 264.009 201.129C264.094 201.198 264.213 201.208 264.323 201.199ZM240.556 292.799C240.123 292.351 239.34 292.306 238.858 292.7C239.061 293.161 239.422 293.55 239.865 293.788C240.069 293.897 240.318 293.974 240.528 293.878C240.911 293.702 240.849 293.103 240.556 292.799ZM240.92 290.002C240.962 289.342 240.607 288.672 240.037 288.336C239.467 288.001 238.709 288.015 238.152 288.373C239.182 288.697 240.136 289.259 240.92 290.002ZM233.02 281.035C232.936 280.832 232.765 280.62 232.548 280.65C232.099 281.363 232.102 282.335 232.556 283.045C233.105 282.558 233.3 281.713 233.02 281.035ZM233.547 293.526C233.44 293.708 233.536 293.976 233.735 294.049C234.025 293.901 234.216 293.576 234.204 293.251C233.97 293.152 233.664 293.301 233.598 293.547M307.825 163.37C307.689 163.47 307.553 163.57 307.417 163.67C307.502 163.824 307.587 163.978 307.672 164.133C307.92 164.006 308.021 163.654 307.877 163.415L307.825 163.37Z" fill="#00160A"/>
<ellipse cx="253.192" cy="203.304" rx="0.52533" ry="1.05069" fill="#FFB61D"/>
<path fill-rule="evenodd" clip-rule="evenodd" d="M264.178 261.65C265.074 251.076 265.826 240.489 266.866 229.928C267.125 227.294 274.556 230.485 271.472 253.329C270.985 256.94 268.662 262.337 264.516 262.614L264.178 261.65Z" fill="#E7EAEE"/>
<path fill-rule="evenodd" clip-rule="evenodd" d="M82.0053 225.433C82.6718 239.787 80.363 230.693 86.3435 234.537C87.3614 235.191 88.4743 236.412 88.2809 237.607C87.9011 239.952 85.6398 241.611 84.836 243.847C80.8572 254.914 98.8884 255.409 102.159 257.149C103.252 257.731 102.761 259.858 102.038 260.863C99.4083 264.518 84.1067 254.594 82.179 253.11C69.4042 243.28 70.9262 236.848 80.9553 226.751L82.0053 225.433Z" fill="#E7EAEE"/>
<ellipse cx="94.5413" cy="209.608" rx="0.52533" ry="1.05066" fill="#FFB61D"/>
</svg>
